<svg xmlns="http://www.w3.org/2000/svg" viewBox="0 0 2225.92 1151.61">
  <title>Asset 1</title>
  <g id="Layer_2" data-name="Layer 2">
    <g id="Layer_1-2" data-name="Layer 1">
      <g id="Group_9" data-name="Group 9">
        <polygon points="2044 496.02 1956.67 508.3 2138.59 607.27 2225.92 594.99 2044 496.02" style="fill: #fbdd74"/>
        <polygon points="1774.14 704.07 1773.86 853.61 1955.78 952.58 1956.06 803.04 1774.14 704.07" style="fill: #67568c"/>
        <polygon points="1787.79 239.99 1787.25 532.11 1969.17 631.08 1969.71 338.96 1787.79 239.99" style="fill: #67568c"/>
        <polygon points="1787.26 532.11 1608.24 557.27 1790.16 656.23 1969.17 631.08 1787.26 532.11" style="fill: #fbdd74"/>
        <polygon points="1957.63 0 1754.11 28.6 1936.03 127.57 2139.55 98.97 1957.63 0" style="fill: #fbdd74"/>
        <polygon points="1754.12 28.61 1416.41 595.68 1598.33 694.65 1936.04 127.57 1754.12 28.61" style="fill: #fbdd74"/>
        <polygon points="1416.41 595.68 1416.12 754.39 1598.03 853.36 1598.33 694.65 1416.41 595.68" style="fill: #67568c"/>
        <path d="M2138.59,607.27l1-508.33L1936,127.53l-337.7,567.09-.3,158.71,358-50.29-.28,149.54L2138,927l.28-149.53,87.33-12.28.31-170.17Zm-169.42,23.81,0,0-179,25.16L1969.71,339Z" style="fill: #ff6e6c"/>
      </g>
      <g id="Group_23" data-name="Group 23">
        <path d="M1300.52,781.73c.23-.68.45-1.37.68-2.05s.53-1.63.79-2.46.43-1.38.64-2.08.51-1.67.76-2.51l.6-2.11c.24-.86.48-1.7.71-2.56s.39-1.44.58-2.16.45-1.73.67-2.6.36-1.46.54-2.19.43-1.75.64-2.64l.51-2.24.6-2.66.48-2.31c.19-.88.38-1.77.56-2.67s.31-1.58.46-2.37.35-1.78.52-2.68.29-1.63.43-2.44.33-1.78.48-2.68l.42-2.53c.15-.88.29-1.77.43-2.66s.27-1.74.4-2.61.27-1.76.4-2.65.25-1.81.38-2.72l.36-2.6.36-2.85c.11-.85.22-1.69.32-2.53s.24-2,.35-3c.09-.82.19-1.64.28-2.47q.18-1.55.33-3.12c.09-.79.17-1.58.25-2.39.11-1.09.22-2.19.32-3.29.07-.76.15-1.51.21-2.27.11-1.17.21-2.34.31-3.52l.18-2.1c.1-1.23.19-2.47.29-3.7l.15-2,.27-3.93.12-1.8c.09-1.4.18-2.8.26-4.21,0-.53.07-1,.1-1.59l.24-4.52c0-.44,0-.87.07-1.31.08-1.61.16-3.22.23-4.83,0-.36,0-.71,0-1.07.08-1.75.15-3.5.21-5.26l0-.68c.07-1.91.14-3.84.2-5.77,0-.07,0-.14,0-.21.45-14.1.63-28.57.66-43.29.18-99.16-7.24-187.76-59.8-216.36l-181.92-99h0c51.74,28.15,59.73,114.44,59.79,211.71v4.64c0,24.88-.54,49-2,71.94l0,.4c-.1,1.67-.22,3.32-.34,5,0,.27,0,.54,0,.81-.11,1.55-.23,3.09-.36,4.63,0,.36-.05.73-.08,1.09-.12,1.44-.24,2.87-.37,4.3,0,.46-.07.91-.12,1.37-.12,1.35-.25,2.69-.38,4l-.15,1.57c-.12,1.26-.26,2.52-.39,3.77-.06.59-.12,1.19-.19,1.78-.13,1.19-.27,2.37-.41,3.55-.07.65-.15,1.29-.22,1.94-.14,1.13-.28,2.25-.43,3.37-.09.68-.17,1.37-.26,2-.14,1.08-.29,2.15-.44,3.22l-.3,2.14c-.15,1-.31,2.05-.46,3.07-.11.74-.22,1.48-.34,2.21l-.48,3c-.13.75-.25,1.51-.38,2.25-.16,1-.33,1.9-.5,2.85-.14.77-.27,1.54-.42,2.3-.17.92-.35,1.84-.53,2.77-.15.76-.29,1.53-.44,2.29s-.37,1.79-.56,2.69-.32,1.54-.49,2.31-.39,1.74-.59,2.62-.34,1.53-.52,2.29-.41,1.71-.62,2.57-.37,1.51-.56,2.26-.43,1.69-.66,2.53-.38,1.49-.59,2.22-.46,1.67-.69,2.49-.41,1.46-.62,2.18l-.75,2.47c-.21.71-.42,1.41-.65,2.12s-.52,1.63-.78,2.44-.45,1.37-.68,2l-.84,2.43c-.23.66-.47,1.33-.71,2s-.43,1.16-.64,1.73c-.42,1.13-.85,2.24-1.28,3.35l-.93,2.34c-.59,1.45-1.2,2.88-1.83,4.31-.13.3-.26.6-.4.9q-1,2.37-2.18,4.7c-.17.35-.34.7-.52,1-.63,1.3-1.29,2.58-2,3.87-.29.54-.57,1.08-.85,1.62l-.37.66c-.56,1-1.13,2-1.72,3-.17.3-.35.59-.52.88-.52.89-1,1.78-1.59,2.65-.26.42-.53.84-.8,1.25-.49.78-1,1.55-1.48,2.3-.23.35-.47.7-.71,1a115.08,115.08,0,0,1-21.49,24,2.43,2.43,0,0,0-.25.2c-.93.77-1.87,1.52-2.82,2.26l-.53.4c-.91.7-1.83,1.38-2.77,2l-.45.32c-.75.53-1.52,1-2.29,1.56l-1.58,1L1065,756l-1.67,1c-.73.42-1.46.84-2.2,1.25l-1.59.87q-1.17.63-2.37,1.23l-1.61.79-2,.94a131.31,131.31,0,0,1-19.42,6.95,146,146,0,0,1-15.41,3.23l-2.15.32h0l-.4.07a110.77,110.77,0,0,1-36.2-.18,95.88,95.88,0,0,1-24-8.1l181.93,99h0c.92.51,1.87,1,2.82,1.46l-1.8-1h0l1.8,1h0a76.2,76.2,0,0,0,14.44,5.29l0,0h0q3.4.79,6.84,1.36a95.74,95.74,0,0,0,36,.15l.4-.06h0c.74-.1,1.47-.23,2.2-.34A132.69,132.69,0,0,0,1215,868.3a122.29,122.29,0,0,0,20.88-7.4l.08,0h0l.7-.34c1-.47,2-.95,3-1.45l1.16-.6c1-.52,2-1,2.91-1.58l1-.56c1-.59,2-1.2,3-1.81l.81-.51c1-.64,2-1.31,3-2l.53-.35h0l.1-.07c.75-.52,1.5-1.06,2.24-1.6l.85-.63c.68-.51,1.35-1,2-1.54l.92-.73,2-1.61.33-.29c1.14-1,2.27-2,3.37-3l1.46-1.37,1.33-1.3,1.33-1.34,1.23-1.28,1.43-1.55c.35-.4.71-.78,1.06-1.18h0c.79-.9,1.57-1.81,2.33-2.73l.8-1c.55-.67,1.09-1.35,1.63-2l.84-1.1c.51-.68,1-1.36,1.52-2.06.28-.37.55-.74.81-1.12l.42-.57h0l.5-.75c.56-.8,1.11-1.61,1.65-2.42l.66-1c.52-.8,1-1.6,1.53-2.42l.86-1.42c.42-.71.85-1.42,1.27-2.14.27-.47.53-.94.79-1.41.46-.83.93-1.66,1.38-2.5,0,0,0,0,0-.08h0a168.67,168.67,0,0,0,7.55-16.15c.23-.56.45-1.12.67-1.67.53-1.35,1-2.7,1.55-4.07l.25-.66h0l.25-.72c.25-.68.48-1.35.72-2S1300.25,782.54,1300.52,781.73Z" style="fill: #67568c"/>
        <path d="M1199.76,202.28C978.16,233.42,900,423.8,899.56,669.85c-.46,248.42,76.94,416.91,298.61,385.76s299.74-221.5,300.2-469.92C1498.83,339.61,1421.41,171.15,1199.76,202.28Zm119.6,408.57c-.25,133.39-13.24,245.6-120.85,260.71h0c-107.6,15.13-120.18-93.48-119.93-226.87.23-128.77,13.23-243.32,120.83-258.44S1319.6,482.08,1319.36,610.85Z" style="fill: #ff6e6c"/>
        <path d="M1318.32,207.21l.14,0q4.57,1.27,9,2.71l.07,0c1.4.45,2.78.92,4.16,1.4l.73.26c1.18.41,2.35.84,3.51,1.27l1.66.63,2.65,1q1.45.58,2.91,1.2c.49.2,1,.4,1.49.62q2.25,1,4.49,2l1.21.56c1,.47,2,.93,3,1.41q4,1.95,7.92,4.07l-.55-.3.55.3-181.92-99q-3.64-2-7.39-3.82h0l-.41-.19q-4.36-2.11-8.86-4l-1-.42c-1.12-.47-2.24-.94-3.38-1.39l-2.43-.94-1.86-.71c-1.13-.43-2.26-.83-3.39-1.23l-.85-.3q-2-.7-4.08-1.38l-.15,0q-4.46-1.44-9-2.69l-.24-.06c-1-.28-2-.57-3.06-.83h0l-.5-.11a251.42,251.42,0,0,0-53.22-7.45,295.42,295.42,0,0,0-61.7,3.48h0a349.75,349.75,0,0,0-53.31,11.31,321.64,321.64,0,0,0-45.71,17c-.36.16-.72.31-1.08.48h0c-.34.15-.67.32-1,.48l-2.62,1.26c-1.34.65-2.68,1.3-4,2l-2.47,1.25c-.82.42-1.63.85-2.44,1.28s-1.66.87-2.49,1.32-1.42.76-2.12,1.15c-1.49.82-3,1.64-4.45,2.48l-.65.38c-1.42.82-2.83,1.64-4.23,2.48l-1.13.68c-1.41.86-2.82,1.72-4.21,2.59l-.54.34q-2.42,1.51-4.77,3.08c-.28.18-.56.36-.83.55-1.21.8-2.4,1.6-3.59,2.42l-.88.59h0A284.37,284.37,0,0,0,846.75,179h0c-.29.25-.56.52-.85.78-1.6,1.45-3.19,2.92-4.75,4.41l-1.23,1.17q-2.37,2.26-4.68,4.59l-1.42,1.43c-1.44,1.46-2.85,2.94-4.26,4.43-.57.6-1.13,1.2-1.69,1.81q-2,2.19-4,4.43c-.3.33-.6.64-.89,1h0a313.33,313.33,0,0,0-21.65,27.53h0c-.63.91-1.26,1.82-1.88,2.74l-.7,1c-.46.67-.91,1.35-1.36,2s-.93,1.39-1.39,2.09-.85,1.29-1.28,1.94-.87,1.34-1.3,2L792,244.59c-.3.48-.6,1-.91,1.45l-1.74,2.83v0q-4.4,7.2-8.43,14.62l-.81,1.49-.61,1.11h0l-.15.3q-6.8,12.69-12.77,26.17l-.12.27c-.73,1.66-1.46,3.33-2.17,5-.47,1.1-.94,2.2-1.4,3.3a3.05,3.05,0,0,0-.13.32q-1.71,4.08-3.33,8.2l-.11.3c-.78,2-1.53,3.94-2.28,5.92l-1.32,3.55c-.08.24-.18.47-.26.71h0c-.12.31-.22.62-.33.93q-.93,2.52-1.81,5.07c-.12.34-.25.68-.37,1-.68,1.95-1.34,3.92-2,5.89-.18.54-.36,1.07-.53,1.61-.59,1.77-1.17,3.56-1.74,5.35l-.27.85q-.95,3-1.87,6.06c-.16.54-.33,1.09-.49,1.64-.57,1.91-1.13,3.82-1.68,5.75-.06.18-.11.36-.16.54-.59,2.08-1.17,4.16-1.74,6.26-.15.54-.3,1.08-.44,1.63q-.86,3.14-1.67,6.31l0,.13c-.55,2.13-1.08,4.27-1.61,6.42l-.39,1.61c-.52,2.16-1,4.33-1.54,6.51,0,.12-.06.25-.08.37-.48,2.09-.95,4.2-1.41,6.31-.12.52-.23,1-.34,1.55q-.72,3.33-1.41,6.67c0,.19-.07.38-.11.56q-.63,3.15-1.25,6.31c-.09.5-.19,1-.29,1.49q-.64,3.39-1.26,6.81c-.05.25-.09.49-.13.74-.38,2.1-.75,4.22-1.11,6.34l-.24,1.4q-.58,3.48-1.13,7c0,.28-.09.57-.13.84-.34,2.15-.66,4.3-1,6.45-.06.43-.13.86-.19,1.28-.35,2.38-.68,4.76-1,7.14l-.12.93c-.3,2.19-.58,4.39-.86,6.59-.05.38-.1.76-.14,1.14-.31,2.43-.6,4.86-.88,7.31,0,.33-.07.66-.11,1q-.39,3.38-.75,6.76c0,.33-.07.67-.1,1q-.39,3.71-.75,7.44c0,.36-.06.73-.1,1.09q-.33,3.47-.63,6.94c0,.27,0,.54-.07.82-.21,2.51-.42,5-.61,7.57l-.09,1.19c-.18,2.36-.35,4.74-.51,7.12,0,.21,0,.43-.05.65-.17,2.55-.33,5.12-.48,7.69,0,.42-.05.85-.08,1.27q-.21,3.64-.39,7.31l0,.49c-.13,2.59-.24,5.18-.35,7.77l-.06,1.4c-.1,2.49-.2,5-.28,7.5,0,.1,0,.21,0,.32-.09,2.59-.16,5.19-.23,7.8,0,.52,0,1,0,1.58-.06,2.55-.12,5.1-.16,7.66v.16c0,2.59-.08,5.19-.11,7.8,0,.59,0,1.19,0,1.78,0,2.6,0,5.21-.05,7.82C717.32,745.4,755.44,880.43,855,934.56l180.71,98.31,1.17.66h0C964.6,994.21,924.71,912.18,908.41,803.38c-6.14-41-8.94-85.78-8.85-133.53,0-2.66,0-5.3.05-8,0-.51,0-1,0-1.52q.07-8,.28-15.91l0-1.27q.2-8,.53-16c0-.32,0-.65,0-1q.33-8.09.8-16.07c0-.24,0-.49,0-.73q.48-8.1,1.09-16.1c0-.17,0-.34,0-.51q.3-4,.65-8.07v0c.23-2.68.48-5.35.73-8l0-.3q.38-4,.8-8v-.13q.42-4,.87-7.91l0-.14c.3-2.64.62-5.27.94-7.89,0-.09,0-.18,0-.27q1-7.84,2.1-15.55c0-.15.05-.29.07-.43q1.11-7.62,2.38-15.12c0-.2.06-.4.1-.6q1.24-7.4,2.64-14.68l.15-.78q1.38-7.17,2.91-14.22c.07-.31.13-.62.2-.93q1.51-6.94,3.17-13.78l.27-1.1q1.63-6.74,3.42-13.34l.33-1.21q1.79-6.54,3.7-12.95l.38-1.28q1-3.18,2-6.33c0-.13.09-.26.13-.39.62-2,1.26-3.92,1.9-5.87.14-.44.29-.88.43-1.31q1-3.07,2.08-6.12l.24-.66q1-2.78,2-5.52l.35-1c.66-1.83,1.35-3.66,2-5.48.48-1.27,1-2.54,1.47-3.8.21-.54.42-1.09.64-1.63q1.14-2.91,2.33-5.79l1-2.46c.36-.86.73-1.72,1.09-2.57q7-16.32,15.33-32l.45-.85,1.26-2.31c.44-.81.89-1.62,1.34-2.43l.6-1.06q2.58-4.61,5.28-9.09l1.19-2c.34-.56.68-1.12,1-1.67.56-.91,1.12-1.81,1.69-2.71l.79-1.25c.67-1.05,1.35-2.1,2-3.15.21-.31.41-.63.62-.95.73-1.11,1.47-2.21,2.21-3.31l.6-.9,1.84-2.67c.32-.46.63-.93,1-1.39h0A313.87,313.87,0,0,1,1004.91,302h0l0,0q2.74-3.12,5.58-6.15l.21-.23c1.87-2,3.77-4,5.69-5.91l.05-.05c2-2,4-3.94,6-5.87l0,0c1.91-1.82,3.85-3.61,5.8-5.38q3.39-3.06,6.87-6l.16-.15,2.3-1.91,1.13-.93,2.06-1.67,1.39-1.12,2-1.58,1.46-1.14,2.08-1.57,1.43-1.08c.73-.54,1.46-1.08,2.2-1.61l1.33-1,2.37-1.69,1.17-.82,1.38-.95q7.27-5,14.84-9.55l.33-.2q5-3,10-5.74l1.26-.68q1.8-1,3.6-1.92l1.56-.81q2.32-1.2,4.68-2.36c.37-.19.74-.36,1.11-.54,1.34-.66,2.69-1.31,4-1.94l1.39-.65A349.84,349.84,0,0,1,1147,213.44a380.55,380.55,0,0,1,52.81-11.15h0a350,350,0,0,1,61.51-3.5,295.07,295.07,0,0,1,53.4,7.46C1315.89,206.56,1317.11,206.88,1318.32,207.21Z" style="fill: #67568c"/>
      </g>
      <g id="Group_32" data-name="Group 32">
        <polygon points="627.92 695.04 540.53 707.32 722.45 806.29 809.84 794.01 627.92 695.04" style="fill: #fbdd74"/>
        <polygon points="358 903.1 357.72 1052.64 539.64 1151.61 539.92 1002.07 358 903.1" style="fill: #67568c"/>
        <polygon points="371.68 439.01 371.13 731.13 553.05 830.1 553.59 537.98 371.68 439.01" style="fill: #67568c"/>
        <polygon points="371.11 731.14 192.09 756.3 374.01 855.27 553.03 830.11 371.11 731.14" style="fill: #fbdd74"/>
        <polygon points="541.49 199.03 337.97 227.63 519.89 326.6 723.41 298 541.49 199.03" style="fill: #fbdd74"/>
        <polygon points="337.95 227.63 0.34 794.7 182.25 893.66 519.87 326.6 337.95 227.63" style="fill: #fbdd74"/>
        <polygon points="0.29 794.7 0 953.41 181.92 1052.38 182.21 893.66 0.29 794.7" style="fill: #67568c"/>
        <path d="M722.45,806.29,723.39,298l-203.53,28.6L182.25,893.63,182,1052.35l358-50.28-.28,149.53L721.86,1126l.28-149.53,87.39-12.28L809.85,794ZM553,830.1l0,0L374,855.25,553.57,538Z" style="fill: #ff6e6c"/>
      </g>
    </g>
  </g>
</svg>
