<?xml version="1.0" encoding="utf-8"?>
<!-- Generator: Adobe Illustrator 23.0.4, SVG Export Plug-In . SVG Version: 6.00 Build 0)  -->
<svg version="1.1" id="Layer_1" xmlns="http://www.w3.org/2000/svg" xmlns:xlink="http://www.w3.org/1999/xlink" x="0px" y="0px"
	 viewBox="0 0 2500 2438" style="enable-background:new 0 0 2500 2438;" xml:space="preserve">
<style type="text/css">
	.st0{fill:#FFFFFF;}
	.st1{fill:#67568C;}
	.st2{fill:#FF6E6C;}
</style>
<path class="st0" d="M104.2,104.4h2291.7v2229.2H104.2V104.4z"/>
<path class="st1" d="M104.2,104.4h2291.7v2229.2H104.2V104.4z M0,2437.8h2500V0.2H0V2437.8z"/>
<path class="st2" d="M1637.5,873.6c0-8.3,3.1-12.5,12.5-12.5h163.5c8.3,0,12.5,3.1,12.5,12.5v821.9c0,8.3-2.1,12.5-12.5,12.5h-161.5
	c-10.4,0-13.5-5.2-13.5-13.5V873.6L1637.5,873.6L1637.5,873.6z M1626,637.1c0-66.7,46.9-106.2,106.3-106.2
	c63.5,0,106.2,42.7,106.2,106.2c0,68.7-44.8,106.2-108.3,106.2C1669.8,743.4,1626,705.9,1626,637.1z M1157.3,1216.3
	c-29.2-115.6-97.9-367.7-124-489.6h-2.1c-21.9,121.9-77.1,328.1-120.8,489.6H1157.3z M867.7,1385l-82.3,312.5
	c-2.1,8.3-5.2,10.4-15.6,10.4H616.7c-10.4,0-12.5-3.1-10.4-15.6L902.1,656.9c5.2-18.7,8.3-35.4,10.4-86.5c0-7.3,3.1-10.4,8.3-10.4
	h218.8c7.3,0,10.4,2.1,12.5,10.4l331.2,1124c2.1,8.3,0,13.5-8.3,13.5h-172.9c-8.3,0-13.5-2.1-15.6-9.4L1201,1385H867.7L867.7,1385z"
	/>
</svg>
