<?xml version="1.0" encoding="utf-8"?>
<!-- Generator: Adobe Illustrator 23.0.4, SVG Export Plug-In . SVG Version: 6.00 Build 0)  -->
<svg version="1.1" id="Layer_1" xmlns="http://www.w3.org/2000/svg" xmlns:xlink="http://www.w3.org/1999/xlink" x="0px" y="0px"
	 viewBox="0 0 385.7 266.5" style="enable-background:new 0 0 385.7 266.5;" xml:space="preserve">
<style type="text/css">
	.st0{clip-path:url(#SVGID_2_);}
	.st1{fill:#5B5A7D;}
	.st2{fill:#5B5A7E;}
	.st3{fill:#5C5B7F;}
	.st4{fill:#5C5B80;}
	.st5{fill:#5D5C80;}
	.st6{fill:#5D5C81;}
	.st7{fill:#5E5D81;}
	.st8{fill:#5E5D82;}
	.st9{fill:#5F5E83;}
	.st10{fill:#5F5E84;}
	.st11{fill:#605F84;}
	.st12{fill:#605F85;}
	.st13{fill:#615F85;}
	.st14{fill:#616086;}
	.st15{fill:#616087;}
	.st16{fill:#626187;}
	.st17{fill:#626188;}
	.st18{fill:#636288;}
	.st19{fill:#636289;}
	.st20{fill:#64638A;}
	.st21{fill:#64638B;}
	.st22{fill:#65648B;}
	.st23{fill:#65648C;}
	.st24{fill:#66648C;}
	.st25{fill:#66658D;}
	.st26{fill:#67658E;}
	.st27{fill:#67668E;}
	.st28{fill:#67668F;}
	.st29{fill:#68678F;}
	.st30{fill:#686790;}
	.st31{fill:#696891;}
	.st32{fill:#696892;}
	.st33{fill:#6A6992;}
	.st34{fill:#6A6993;}
	.st35{fill:#6B6993;}
	.st36{fill:#6B6A94;}
	.st37{fill:#6C6A95;}
	.st38{fill:#6C6B95;}
	.st39{fill:#6D6B96;}
	.st40{fill:#6D6C96;}
	.st41{fill:#6D6C97;}
	.st42{fill:#6E6C97;}
	.st43{fill:#6E6D98;}
	.st44{fill:#6E6D99;}
	.st45{fill:#6F6E99;}
	.st46{fill:#6F6E9A;}
	.st47{fill:#706E9A;}
	.st48{fill:#706F9B;}
	.st49{fill:#716F9C;}
	.st50{fill:#71709C;}
	.st51{fill:#72709D;}
	.st52{fill:#72719D;}
	.st53{fill:#72719E;}
	.st54{fill:#73719E;}
	.st55{fill:#73729F;}
	.st56{fill:#7472A0;}
	.st57{fill:#7473A0;}
	.st58{fill:#7473A1;}
	.st59{fill:#7573A1;}
	.st60{fill:#7574A2;}
	.st61{fill:#7674A3;}
	.st62{fill:#7675A3;}
	.st63{fill:#7675A4;}
	.st64{fill:#7775A4;}
	.st65{fill:#7776A4;}
	.st66{fill:#7776A5;}
	.st67{fill:#7876A5;}
	.st68{fill:#7877A6;}
	.st69{fill:#7977A7;}
	.st70{fill:#7978A7;}
	.st71{fill:#7A78A8;}
	.st72{fill:#7A79A8;}
	.st73{fill:#7A79A9;}
	.st74{fill:#7B79AA;}
	.st75{fill:#7B7AAA;}
	.st76{fill:#7B7AAB;}
	.st77{fill:#7C7AAB;}
	.st78{fill:#7C7BAB;}
	.st79{fill:#7C7BAC;}
	.st80{fill:#7D7BAC;}
	.st81{fill:#7D7CAD;}
	.st82{fill:#7E7CAE;}
	.st83{fill:#7E7DAE;}
	.st84{fill:#7F7DAF;}
	.st85{fill:#7F7EAF;}
	.st86{fill:#7F7EB0;}
	.st87{fill:#807EB0;}
	.st88{clip-path:url(#SVGID_4_);}
	.st89{clip-path:url(#SVGID_6_);}
	.st90{clip-path:url(#SVGID_8_);}
	.st91{clip-path:url(#SVGID_10_);}
	.st92{fill:#9C9AD7;}
	.st93{fill:#8C8AC1;}
	.st94{fill:#8281B4;}
	.st95{fill:#FFFFFF;}
	.st96{fill:#FF6E6C;}
	.st97{fill:#FBDD74;}
	.st98{fill:#67568C;}
	.st99{fill:#1F1235;}
	.st100{clip-path:url(#SVGID_12_);}
	.st101{clip-path:url(#SVGID_14_);}
	.st102{clip-path:url(#SVGID_16_);}
	.st103{clip-path:url(#SVGID_18_);}
	.st104{clip-path:url(#SVGID_20_);}
	.st105{clip-path:url(#SVGID_22_);}
</style>
<title>Asset 8</title>
<g>
	<g id="Layer_1-2">
		<g>
			<g>
				<g>
					<g>
						<g>
							<g>
								<defs>
									<path id="SVGID_1_" d="M156.8,42.9l-0.1,40.8c0-3.5-2.7-7.1-7.9-10.2l-0.6-0.3c-8.4-4.9-19.2-5.9-28.3-0.6
										c-3.5,2-5,4.5-5,7.2L115,39c0-2.8,1.5-5.2,5-7.2c9.1-5.3,19.8-4.2,28.3,0.6l0.6,0.3C154.1,35.8,156.8,39.3,156.8,42.9z"/>
								</defs>
								<clipPath id="SVGID_2_">
									<use xlink:href="#SVGID_1_"  style="overflow:visible;"/>
								</clipPath>
								<g class="st0">
									<g>
										<path class="st1" d="M156.8,42.9l-0.1,40.8c0-3.4-2.6-6.9-7.5-9.9l0.1-40.8C154.3,36,156.8,39.4,156.8,42.9"/>
										<path class="st2" d="M149.4,32.9l-0.1,40.8l-0.4-0.3l-0.6-0.3l0,0l0.1-40.8l0,0l0.6,0.3L149.4,32.9"/>
										<path class="st2" d="M148.4,32.3l-0.1,40.8l-0.6-0.4l0.1-40.8L148.4,32.3"/>
										<path class="st3" d="M147.7,31.9l-0.1,40.8l-0.6-0.3l0.1-40.8L147.7,31.9"/>
										<path class="st3" d="M147.1,31.6L147,72.4l-0.5-0.2l0.1-40.8L147.1,31.6"/>
										<path class="st4" d="M146.6,31.4l-0.1,40.8L146,72l0.1-40.8L146.6,31.4"/>
										<path class="st5" d="M146.1,31.1L146,71.9l-0.4-0.2l0.1-40.8L146.1,31.1"/>
										<path class="st6" d="M145.7,30.9l-0.1,40.8l-0.4-0.2l0.1-40.8L145.7,30.9"/>
										<path class="st6" d="M145.3,30.8l-0.1,40.8l-0.4-0.2l0.1-40.8L145.3,30.8"/>
										<path class="st7" d="M145,30.6l-0.1,40.8l-0.4-0.2l0.1-40.8L145,30.6"/>
										<path class="st8" d="M144.6,30.5l-0.1,40.8l-0.3-0.1l0.1-40.8L144.6,30.5"/>
										<path class="st8" d="M144.3,30.3l-0.1,40.8l-0.3-0.1l0.1-40.8L144.3,30.3"/>
										<path class="st9" d="M144,30.2L143.9,71l-0.3-0.1l0.1-40.8L144,30.2"/>
										<path class="st9" d="M143.7,30.1l-0.1,40.8l-0.3-0.1l0.1-40.8L143.7,30.1"/>
										<path class="st10" d="M143.4,30l-0.1,40.8l-0.3-0.1l0.1-40.8L143.4,30"/>
										<path class="st11" d="M143.1,29.9L143,70.6l-0.2-0.1l0.1-40.8L143.1,29.9"/>
										<path class="st11" d="M142.9,29.8l-0.1,40.8l-0.2-0.1l0.1-40.8L142.9,29.8"/>
										<path class="st12" d="M142.6,29.7l-0.1,40.8l-0.2-0.1l0.1-40.8L142.6,29.7"/>
										<path class="st13" d="M142.4,29.6l-0.1,40.8l-0.2-0.1l0.1-40.8L142.4,29.6"/>
										<path class="st14" d="M142.1,29.6L142,70.3l-0.2-0.1l0.1-40.8L142.1,29.6"/>
										<path class="st14" d="M141.9,29.5l-0.1,40.8l-0.2-0.1l0.1-40.8L141.9,29.5"/>
										<path class="st15" d="M141.7,29.4l-0.1,40.8l-0.2-0.1l0.1-40.8L141.7,29.4"/>
										<path class="st16" d="M141.5,29.4l-0.1,40.8h-0.2l0.1-40.8L141.5,29.4"/>
										<path class="st17" d="M141.3,29.3l-0.1,40.8L141,70l0.1-40.8L141.3,29.3"/>
										<path class="st17" d="M141.1,29.2L141,70l-0.2-0.1l0.1-40.8L141.1,29.2"/>
										<path class="st18" d="M140.9,29.2L140.8,70h-0.2l0.1-40.8H140.9"/>
										<path class="st19" d="M140.6,29.1l-0.1,40.8h-0.2l0.1-40.8L140.6,29.1"/>
										<path class="st19" d="M140.4,29.1l-0.1,40.8h-0.2l0.1-40.8L140.4,29.1"/>
										<path class="st20" d="M140.2,29l-0.1,40.8l-0.2-0.1L140,29H140.2"/>
										<path class="st20" d="M140.1,29L140,69.7h-0.2l0.1-40.8L140.1,29"/>
										<path class="st21" d="M139.9,28.9l-0.1,40.8h-0.2l0.1-40.8L139.9,28.9"/>
										<path class="st22" d="M139.7,28.9l-0.1,40.8h-0.2l0.1-40.8L139.7,28.9"/>
										<path class="st22" d="M139.5,28.9l-0.1,40.8h-0.2l0.1-40.8L139.5,28.9"/>
										<path class="st23" d="M139.4,28.8l-0.1,40.8h-0.2l0.1-40.8H139.4"/>
										<path class="st24" d="M139.2,28.8l-0.1,40.8h-0.2l0.1-40.8H139.2"/>
										<path class="st25" d="M139,28.7l-0.1,40.8h-0.2l0.1-40.8H139"/>
										<path class="st25" d="M138.8,28.7l-0.1,40.8h-0.2l0.1-40.8H138.8"/>
										<path class="st26" d="M138.7,28.7l-0.1,40.8h-0.2l0.1-40.8H138.7"/>
										<path class="st27" d="M138.5,28.6l-0.1,40.8h-0.2l0.1-40.8L138.5,28.6"/>
										<path class="st28" d="M138.3,28.6l-0.1,40.8H138l0.1-40.8L138.3,28.6"/>
										<path class="st28" d="M138.2,28.6l-0.1,40.8h-0.2l0.1-40.8L138.2,28.6"/>
										<path class="st29" d="M138,28.6l-0.1,40.8h-0.2l0.1-40.8L138,28.6"/>
										<path class="st30" d="M137.9,28.5l-0.1,40.8h-0.2l0.1-40.8L137.9,28.5"/>
										<path class="st30" d="M137.7,28.5l-0.1,40.8h-0.2l0.1-40.8L137.7,28.5"/>
										<path class="st31" d="M137.5,28.5l-0.1,40.8h-0.2l0.1-40.8L137.5,28.5"/>
										<path class="st31" d="M137.4,28.5l-0.1,40.8h-0.1l0.1-40.8L137.4,28.5"/>
										<path class="st32" d="M137.2,28.4l-0.1,40.8H137L137.2,28.4L137.2,28.4"/>
										<path class="st33" d="M137.1,28.4L137,69.2h-0.1l0.1-40.8L137.1,28.4"/>
										<path class="st33" d="M136.9,28.4l-0.1,40.8h-0.1l0.1-40.8L136.9,28.4"/>
										<path class="st34" d="M136.8,28.4l-0.1,40.8h-0.1l0.1-40.8L136.8,28.4"/>
										<path class="st35" d="M136.6,28.4l-0.1,40.8h-0.1l0.1-40.8L136.6,28.4"/>
										<path class="st36" d="M136.5,28.3l-0.1,40.8h-0.1l0.1-40.8H136.5"/>
										<path class="st36" d="M136.4,28.3l-0.1,40.8h-0.1l0.1-40.8H136.4"/>
										<path class="st37" d="M136.2,28.3l-0.1,40.8H136L136.2,28.3L136.2,28.3"/>
										<path class="st38" d="M136.1,28.3L136,69.1h-0.1l0.1-40.8H136.1"/>
										<path class="st38" d="M135.9,28.3L135.8,69h-0.1L135.9,28.3L135.9,28.3"/>
										<path class="st39" d="M135.8,28.3L135.6,69h-0.1l0.1-40.8L135.8,28.3"/>
										<path class="st40" d="M135.6,28.3L135.5,69h-0.1l0.1-40.8L135.6,28.3"/>
										<path class="st41" d="M135.5,28.2L135.4,69h-0.1l0.1-40.8H135.5"/>
										<path class="st42" d="M135.3,28.2L135.2,69h-0.1l0.1-40.8H135.3"/>
										<path class="st43" d="M135.2,28.2L135.1,69H135L135.2,28.2L135.2,28.2"/>
										<path class="st43" d="M135.1,28.2L134.9,69h-0.1l0.1-40.8H135.1"/>
										<path class="st44" d="M134.9,28.2L134.8,69h-0.1L134.9,28.2L134.9,28.2"/>
										<path class="st45" d="M134.8,28.2L134.7,69h-0.1l0.1-40.8H134.8"/>
										<path class="st45" d="M134.6,28.2L134.5,69h-0.1l0.1-40.8H134.6"/>
										<path class="st46" d="M134.5,28.2L134.4,69h-0.1l0.1-40.8H134.5"/>
										<path class="st47" d="M134.4,28.2L134.3,69h-0.1L134.4,28.2L134.4,28.2"/>
										<path class="st48" d="M134.2,28.2L134.1,69H134L134.2,28.2L134.2,28.2"/>
										<path class="st48" d="M134.1,28.2L134,68.9h-0.1L134.1,28.2L134.1,28.2"/>
										<path class="st49" d="M133.9,28.2L133.8,69h-0.1L133.9,28.2L133.9,28.2"/>
										<path class="st50" d="M133.8,28.2L133.7,69h-0.1l0.1-40.8H133.8"/>
										<path class="st50" d="M133.6,28.2L133.5,69h-0.1l0.1-40.8H133.6"/>
										<path class="st51" d="M133.5,28.2L133.4,69h-0.1l0.1-40.8H133.5"/>
										<path class="st52" d="M133.4,28.2L133.3,69h-0.1L133.4,28.2L133.4,28.2"/>
										<path class="st53" d="M133.2,28.2L133.1,69H133L133.2,28.2L133.2,28.2"/>
										<path class="st54" d="M133.1,28.2L133,68.9h-0.1l0.1-40.8L133.1,28.2"/>
										<path class="st55" d="M132.9,28.2L132.8,69h-0.1L132.9,28.2L132.9,28.2"/>
										<path class="st55" d="M132.8,28.2L132.7,69h-0.1l0.1-40.8H132.8"/>
										<path class="st56" d="M132.6,28.2L132.5,69h-0.1l0.1-40.8H132.6"/>
										<path class="st57" d="M132.5,28.2L132.4,69h-0.1l0.1-40.8H132.5"/>
										<path class="st57" d="M132.3,28.2L132.2,69h-0.1l0.1-40.8H132.3"/>
										<path class="st58" d="M132.2,28.2L132.1,69H132L132.2,28.2L132.2,28.2"/>
										<path class="st59" d="M132.1,28.2L131.9,69h-0.1l0.1-40.8H132.1"/>
										<path class="st60" d="M131.9,28.2L131.8,69h-0.1L131.9,28.2L131.9,28.2"/>
										<path class="st60" d="M131.8,28.2L131.6,69h-0.1l0.1-40.8H131.8"/>
										<path class="st61" d="M131.6,28.2L131.5,69h-0.2l0.1-40.8H131.6"/>
										<path class="st62" d="M131.5,28.2L131.3,69h-0.2l0.1-40.8H131.5"/>
										<path class="st63" d="M131.3,28.2L131.2,69H131l0.1-40.8H131.3"/>
										<path class="st64" d="M131.1,28.2L131,69h-0.2l0.2-40.7L131.1,28.2"/>
										<path class="st65" d="M131,28.3L130.9,69h-0.2l0.1-40.8L131,28.3"/>
										<path class="st66" d="M130.8,28.3L130.7,69h-0.2l0.1-40.8L130.8,28.3"/>
										<path class="st67" d="M130.6,28.3L130.5,69h-0.2l0.1-40.8L130.6,28.3"/>
										<path class="st68" d="M130.5,28.3l-0.1,40.8h-0.2l0.1-40.8H130.5"/>
										<path class="st68" d="M130.3,28.3l-0.1,40.8H130l0.1-40.8H130.3"/>
										<path class="st69" d="M130.2,28.3l-0.1,40.8h-0.2l0.1-40.7L130.2,28.3"/>
										<path class="st70" d="M130,28.4l-0.1,40.8h-0.2l0.1-40.8L130,28.4"/>
										<path class="st70" d="M129.8,28.4l-0.1,40.8h-0.2l0.1-40.8L129.8,28.4"/>
										<path class="st71" d="M129.6,28.4l-0.1,40.8h-0.2l0.1-40.8L129.6,28.4"/>
										<path class="st72" d="M129.4,28.4l-0.1,40.8h-0.2l0.1-40.8L129.4,28.4"/>
										<path class="st73" d="M129.2,28.5l-0.1,40.8h-0.2l0.1-40.8L129.2,28.5"/>
										<path class="st73" d="M129.1,28.5L129,69.2h-0.2l0.1-40.8h0.2"/>
										<path class="st74" d="M128.9,28.5l-0.1,40.8h-0.2l0.1-40.8L128.9,28.5"/>
										<path class="st75" d="M128.7,28.6l-0.1,40.8h-0.2l0.1-40.8L128.7,28.6"/>
										<path class="st76" d="M128.5,28.6l-0.1,40.8l-0.2,0.1l0.1-40.8L128.5,28.6"/>
										<path class="st77" d="M128.2,28.6l-0.1,40.8h-0.2l0.1-40.7L128.2,28.6"/>
										<path class="st78" d="M128,28.7l-0.1,40.8h-0.2l0.1-40.8H128"/>
										<path class="st79" d="M127.8,28.7l-0.1,40.8l-0.2,0.1l0.1-40.8L127.8,28.7"/>
										<path class="st80" d="M127.6,28.8l-0.1,40.8h-0.2l0.1-40.8H127.6"/>
										<path class="st81" d="M127.3,28.8l-0.1,40.8l-0.3,0.1l0.1-40.8L127.3,28.8"/>
										<path class="st81" d="M127.1,28.9L127,69.7l-0.3,0.1l0.1-40.7L127.1,28.9"/>
										<path class="st82" d="M126.7,29l-0.1,40.8l-0.3,0.1l0.1-40.8L126.7,29"/>
										<path class="st83" d="M126.4,29.1l-0.1,40.8L126,70l0.1-40.8L126.4,29.1"/>
										<path class="st83" d="M126.1,29.1L126,69.9l-0.3,0.1l0.1-40.8L126.1,29.1"/>
										<path class="st84" d="M125.8,29.2L125.7,70l-0.5,0.2l0.1-40.8L125.8,29.2"/>
										<path class="st85" d="M125.2,29.4l-0.1,40.8l-0.5,0.2l0.1-40.8L125.2,29.4"/>
										<path class="st86" d="M124.7,29.6l-0.1,40.8l-0.7,0.2l0.1-40.8L124.7,29.6"/>
										<path class="st87" d="M124.1,29.8L124,70.6c-1,0.4-2,0.8-3,1.4l0.1-40.8C122,30.7,123,30.2,124.1,29.8"/>
										<path class="st86" d="M121,31.2L120.9,72l-0.9,0.5l0.1-40.8L121,31.2"/>
										<path class="st85" d="M120.2,31.7L120,72.4l0,0l-0.2,0.1l0.1-40.8H120.2L120.2,31.7"/>
										<path class="st84" d="M119.9,31.8l-0.1,40.8l-0.2,0.1l0.1-40.8L119.9,31.8"/>
										<path class="st83" d="M119.7,31.9l-0.1,40.8l-0.2,0.1l0.1-40.8L119.7,31.9"/>
										<path class="st83" d="M119.5,32l-0.1,40.8l-0.2,0.1l0.1-40.8L119.5,32"/>
										<path class="st82" d="M119.3,32.2L119.2,73H119l0.1-40.8H119.3"/>
										<path class="st81" d="M119.1,32.3L119,73l-0.2,0.1L119.1,32.3L119.1,32.3"/>
										<path class="st81" d="M119,32.4l-0.1,40.8l-0.2,0.1l0.1-40.8L119,32.4"/>
										<path class="st80" d="M118.8,32.5l-0.1,40.8l-0.2,0.1l0.1-40.8L118.8,32.5"/>
										<path class="st79" d="M118.6,32.7l-0.1,40.8l-0.2,0.1l0.1-40.8L118.6,32.7"/>
										<path class="st78" d="M118.4,32.8l-0.1,40.8l-0.2,0.1l0.1-40.8L118.4,32.8"/>
										<path class="st77" d="M118.3,32.9l-0.1,40.8l-0.2,0.1l0.1-40.8L118.3,32.9"/>
										<path class="st76" d="M118.1,33.1L118,73.8l-0.2,0.1L118.1,33.1L118.1,33.1"/>
										<path class="st75" d="M118,33.2L117.8,74l-0.2,0.1l0.1-40.8L118,33.2"/>
										<path class="st74" d="M117.8,33.3l-0.1,40.8l-0.2,0.1l0.1-40.8L117.8,33.3"/>
										<path class="st73" d="M117.7,33.4l-0.1,40.8l-0.1,0.1L117.7,33.4C117.6,33.5,117.6,33.5,117.7,33.4"/>
										<path class="st73" d="M117.5,33.6l-0.1,40.7l-0.1,0.1L117.5,33.6L117.5,33.6"/>
										<path class="st72" d="M117.4,33.7l-0.1,40.8l-0.1,0.1L117.4,33.7L117.4,33.7"/>
										<path class="st71" d="M117.3,33.9l-0.1,40.8l-0.1,0.1L117.3,33.9L117.3,33.9"/>
										<path class="st70" d="M117.1,34L117,74.7l-0.1,0.1L117.1,34L117.1,34"/>
										<path class="st70" d="M117,34.1l-0.1,40.8c0,0-0.1,0-0.1,0.1L117,34.1L117,34.1"/>
										<path class="st69" d="M117,34.2L116.8,75l-0.1,0.1l0.1-40.8L117,34.2"/>
										<path class="st68" d="M116.9,34.3L116.8,75l-0.1,0.1L116.9,34.3C116.8,34.3,116.9,34.3,116.9,34.3"/>
										<path class="st68" d="M116.8,34.3l-0.1,40.8l-0.1,0.1L116.8,34.3L116.8,34.3"/>
										<path class="st67" d="M116.8,34.4l-0.1,40.8l-0.1,0.1L116.8,34.4C116.7,34.5,116.7,34.5,116.8,34.4"/>
										<path class="st66" d="M116.7,34.5l-0.1,40.8l-0.1,0.1L116.7,34.5L116.7,34.5"/>
										<path class="st65" d="M116.6,34.6l-0.1,40.8l-0.1,0.1L116.6,34.6L116.6,34.6"/>
										<path class="st64" d="M116.6,34.7l-0.1,40.8l-0.1,0.1L116.6,34.7L116.6,34.7"/>
										<path class="st63" d="M116.5,34.8l-0.1,40.8l-0.1,0.1L116.5,34.8L116.5,34.8"/>
										<path class="st62" d="M116.4,34.8l-0.1,40.8l-0.1,0.1L116.4,34.8L116.4,34.8"/>
										<path class="st61" d="M116.4,34.9l-0.1,40.8l-0.1,0.1L116.4,34.9C116.3,35,116.3,34.9,116.4,34.9"/>
										<path class="st60" d="M116.3,35l-0.1,40.8l-0.1,0.1L116.3,35L116.3,35"/>
										<path class="st60" d="M116.3,35.1l-0.1,40.8V76L116.3,35.1C116.3,35.2,116.3,35.1,116.3,35.1"/>
										<path class="st59" d="M116.2,35.2L116.1,76v0.1L116.2,35.2L116.2,35.2"/>
										<path class="st58" d="M116.2,35.3L116,76c0,0,0,0.1-0.1,0.1L116.2,35.3L116.2,35.3"/>
										<path class="st57" d="M116.1,35.4L116,76.1v0.1L116.1,35.4L116.1,35.4"/>
										<path class="st57" d="M116.1,35.4L116,76.2v0.1L116.1,35.4C116,35.5,116,35.5,116.1,35.4"/>
										<path class="st56" d="M116,35.5l-0.1,40.8v0.1L116,35.5L116,35.5"/>
										<path class="st55" d="M116,35.6l-0.1,40.8v0.1L116,35.6L116,35.6"/>
										<path class="st55" d="M115.9,35.7l-0.1,40.8v0.1L115.9,35.7C115.9,35.8,115.9,35.8,115.9,35.7"/>
										<path class="st54" d="M115.9,35.8l-0.1,40.8v0.1L115.9,35.8L115.9,35.8"/>
										<path class="st53" d="M115.8,35.9l-0.1,40.8v0.1l0.1-40.7C115.8,36,115.8,35.9,115.8,35.9"/>
										<path class="st52" d="M115.8,36l-0.1,40.8v0.1L115.8,36L115.8,36"/>
										<path class="st51" d="M115.7,36.1l-0.1,40.7v0.1L115.7,36.1L115.7,36.1"/>
										<path class="st50" d="M115.7,36.1l-0.1,40.8V77L115.7,36.1L115.7,36.1"/>
										<path class="st50" d="M115.7,36.2L115.6,77v0.1L115.7,36.2C115.7,36.3,115.7,36.3,115.7,36.2"/>
										<path class="st49" d="M115.6,36.3l-0.1,40.8v0.1L115.6,36.3C115.6,36.4,115.6,36.3,115.6,36.3"/>
										<path class="st48" d="M115.6,36.4l-0.1,40.8v0.1L115.6,36.4L115.6,36.4"/>
										<path class="st48" d="M115.6,36.5l-0.1,40.8v0.1L115.6,36.5L115.6,36.5"/>
										<path class="st47" d="M115.5,36.6l-0.1,40.8v0.1L115.5,36.6L115.5,36.6"/>
										<path class="st46" d="M115.5,36.7l-0.1,40.8v0.1L115.5,36.7L115.5,36.7"/>
										<path class="st45" d="M115.5,36.8l-0.1,40.8v0.1L115.5,36.8L115.5,36.8"/>
										<path class="st45" d="M115.4,36.9l-0.1,40.8v0.1l0.1-40.7V36.9"/>
										<path class="st44" d="M115.4,37l-0.1,40.8v0.1l0.1-40.8V37"/>
										<path class="st43" d="M115.4,37.1l-0.1,40.8V78L115.4,37.1L115.4,37.1"/>
										<path class="st43" d="M115.3,37.2L115.2,78l0,0L115.3,37.2C115.4,37.2,115.4,37.2,115.3,37.2"/>
										<path class="st42" d="M115.3,37.3L115.2,78v0.1L115.3,37.3L115.3,37.3"/>
										<path class="st41" d="M115.3,37.4l-0.1,40.8v0.1L115.3,37.4C115.3,37.5,115.3,37.4,115.3,37.4"/>
										<path class="st40" d="M115.3,37.5l-0.1,40.8v0.1l0.1-40.8C115.3,37.6,115.3,37.5,115.3,37.5"/>
										<path class="st39" d="M115.3,37.6l-0.1,40.8v0.1L115.3,37.6C115.2,37.7,115.2,37.6,115.3,37.6"/>
										<path class="st38" d="M115.2,37.7l-0.1,40.8v0.1L115.2,37.7L115.2,37.7"/>
										<path class="st38" d="M115.2,37.8l-0.1,40.8v0.1L115.2,37.8C115.2,37.9,115.2,37.8,115.2,37.8"/>
										<path class="st37" d="M115.2,37.9l-0.1,40.8v0.1L115.2,37.9C115.2,38,115.2,37.9,115.2,37.9"/>
										<path class="st36" d="M115.2,38l-0.1,40.8v0.1l0.1-40.8C115.2,38.1,115.2,38,115.2,38"/>
										<path class="st36" d="M115.2,38.1l-0.1,40.8V79L115.2,38.1C115.2,38.2,115.2,38.2,115.2,38.1"/>
										<path class="st35" d="M115.2,38.2L115.1,79v0.1L115.2,38.2C115.2,38.3,115.2,38.3,115.2,38.2"/>
										<path class="st34" d="M115.2,38.3l-0.1,40.8v0.1L115.2,38.3L115.2,38.3"/>
										<path class="st33" d="M115.2,38.5L115,79.2v0.1L115.2,38.5C115.1,38.5,115.1,38.5,115.2,38.5"/>
										<path class="st33" d="M115.2,38.6L115,79.3v0.1L115.2,38.6L115.2,38.6"/>
										<path class="st32" d="M115.2,38.7L115,79.4v0.1L115.2,38.7C115.1,38.8,115.1,38.7,115.2,38.7"/>
										<path class="st31" d="M115.1,38.8L115,79.5v0.1L115.1,38.8L115.1,38.8"/>
									</g>
								</g>
							</g>
						</g>
					</g>
				</g>
				<g>
					<g>
						<g>
							<g>
								<defs>
									<path id="SVGID_3_" d="M207.1,50.2L207,91c0,8.5-5.5,16.7-17,24.1l0.1-40.8C201.6,66.9,207.1,58.7,207.1,50.2z"/>
								</defs>
								<clipPath id="SVGID_4_">
									<use xlink:href="#SVGID_3_"  style="overflow:visible;"/>
								</clipPath>
								<g class="st88">
									<g>
										<path class="st31" d="M207.1,50.2L207,91v0.3l0.1-40.8C207.1,50.4,207.1,50.3,207.1,50.2"/>
										<path class="st31" d="M207.1,50.5L207,91.3c0,0.1,0,0.2,0,0.3l0.1-40.8V50.5"/>
										<path class="st32" d="M207.1,50.8L207,91.6c0,0.1,0,0.2,0,0.3l0.1-40.8C207.1,51,207.1,50.9,207.1,50.8"/>
										<path class="st33" d="M207.1,51.1L207,91.9c0,0.1,0,0.2,0,0.3l0.1-40.8C207.1,51.3,207.1,51.2,207.1,51.1"/>
										<path class="st33" d="M207.1,51.4L207,92.2c0,0.1,0,0.2,0,0.3l0.1-40.8C207.1,51.6,207.1,51.5,207.1,51.4"/>
										<path class="st34" d="M207.1,51.7L207,92.5c0,0.1,0,0.2,0,0.3V52L207.1,51.7"/>
										<path class="st35" d="M207,52l-0.1,40.8V93l0.1-40.8V52"/>
										<path class="st36" d="M207,52.3L206.9,93c0,0.1,0,0.2,0,0.3l0.1-40.7V52.3"/>
										<path class="st36" d="M207,52.6l-0.1,40.8v0.3l0.1-40.8C207,52.7,207,52.7,207,52.6"/>
										<path class="st37" d="M206.9,52.8l-0.1,40.8c0,0.1,0,0.2,0,0.3l0.1-40.8C206.9,53,206.9,52.9,206.9,52.8"/>
										<path class="st38" d="M206.9,53.1l-0.1,40.8c0,0.1,0,0.2,0,0.3l0.1-40.8C206.9,53.3,206.9,53.2,206.9,53.1"/>
										<path class="st38" d="M206.8,53.4l-0.1,40.8c0,0.1,0,0.2,0,0.3l0.1-40.8C206.9,53.6,206.9,53.5,206.8,53.4"/>
										<path class="st39" d="M206.8,53.7l-0.1,40.8c0,0.1,0,0.2-0.1,0.3l0.1-40.7C206.7,53.9,206.7,53.8,206.8,53.7"/>
										<path class="st40" d="M206.7,54l-0.1,40.8l-0.1,0.3l0.1-40.8L206.7,54"/>
										<path class="st41" d="M206.7,54.3L206.6,95c0,0.1,0,0.2-0.1,0.3l0.1-40.8L206.7,54.3"/>
										<path class="st42" d="M206.6,54.5l-0.1,40.8l-0.1,0.3l0.1-40.8C206.6,54.7,206.6,54.6,206.6,54.5"/>
										<path class="st43" d="M206.6,54.8l-0.1,40.8c0,0.1-0.1,0.2-0.1,0.3l0.1-40.8C206.5,55,206.5,54.9,206.6,54.8"/>
										<path class="st43" d="M206.5,55.1l-0.1,40.7c0,0.1-0.1,0.2-0.1,0.3l0.1-40.8C206.4,55.3,206.5,55.2,206.5,55.1"/>
										<path class="st44" d="M206.4,55.4l-0.1,40.8c0,0.1,0,0.2-0.1,0.3l0.1-40.8C206.3,55.6,206.3,55.5,206.4,55.4"/>
										<path class="st45" d="M206.3,55.7l-0.1,40.8c0,0.1-0.1,0.2-0.1,0.3l0.1-40.7C206.2,55.9,206.3,55.8,206.3,55.7"/>
										<path class="st45" d="M206.2,56l-0.1,40.8L206,97l0.1-40.8L206.2,56"/>
										<path class="st46" d="M206.2,56.2L206,97l-0.1,0.3l0.1-40.8L206.2,56.2"/>
										<path class="st47" d="M206.1,56.5L206,97.3c0,0.1-0.1,0.2-0.1,0.3l0.1-40.8C206,56.7,206.1,56.6,206.1,56.5"/>
										<path class="st48" d="M206,56.8l-0.1,40.8c0,0.1-0.1,0.2-0.1,0.3l0.1-40.8L206,56.8"/>
										<path class="st48" d="M205.9,57.1l-0.1,40.8c0,0.1-0.1,0.2-0.1,0.3l0.1-40.8C205.8,57.3,205.8,57.2,205.9,57.1"/>
										<path class="st49" d="M205.8,57.4l-0.1,40.8c0,0.1-0.1,0.2-0.1,0.3l0.1-40.8L205.8,57.4"/>
										<path class="st50" d="M205.7,57.6l-0.1,40.8l-0.1,0.3l0.1-40.8L205.7,57.6"/>
										<path class="st50" d="M205.5,57.9l-0.1,40.8l-0.1,0.3l0.1-40.8L205.5,57.9"/>
										<path class="st51" d="M205.4,58.2L205.3,99c0,0.1-0.1,0.2-0.1,0.3l0.1-40.8C205.3,58.4,205.4,58.3,205.4,58.2"/>
										<path class="st52" d="M205.3,58.5l-0.1,40.7c0,0.1-0.1,0.2-0.1,0.3l0.1-40.8C205.2,58.7,205.2,58.6,205.3,58.5"/>
										<path class="st53" d="M205.2,58.8L205,99.5c0,0.1-0.1,0.2-0.1,0.3L205,59L205.2,58.8"/>
										<path class="st54" d="M205,59.1l-0.1,40.8l-0.1,0.3l0.1-40.8C204.9,59.3,205,59.2,205,59.1"/>
										<path class="st55" d="M204.9,59.4l-0.1,40.8c0,0.1-0.1,0.2-0.1,0.3l0.1-40.8L204.9,59.4"/>
										<path class="st55" d="M204.7,59.7l-0.1,40.8l-0.1,0.3l0.1-40.7C204.6,59.9,204.7,59.8,204.7,59.7"/>
										<path class="st56" d="M204.6,60l-0.1,40.8l-0.2,0.3l0.1-40.8L204.6,60"/>
										<path class="st57" d="M204.4,60.2l-0.1,40.8c-0.1,0.1-0.1,0.2-0.2,0.3l0.1-40.8L204.4,60.2"/>
										<path class="st57" d="M204.3,60.5l-0.1,40.8l-0.2,0.3l0.1-40.8L204.3,60.5"/>
										<path class="st58" d="M204.1,60.8l-0.1,40.8c-0.1,0.1-0.1,0.2-0.2,0.3l0.1-40.8L204.1,60.8"/>
										<path class="st59" d="M203.9,61.1l-0.1,40.8c-0.1,0.1-0.1,0.2-0.2,0.3l0.1-40.8L203.9,61.1"/>
										<path class="st60" d="M203.7,61.5l-0.1,40.8c-0.1,0.1-0.1,0.2-0.2,0.3l0.1-40.8L203.7,61.5"/>
										<path class="st60" d="M203.5,61.8l-0.1,40.8l-0.2,0.3l0.1-40.8L203.5,61.8"/>
										<path class="st61" d="M203.3,62.1l-0.1,40.8l-0.2,0.3l0.1-40.8C203.2,62.3,203.2,62.2,203.3,62.1"/>
										<path class="st62" d="M203.1,62.4l-0.1,40.8l-0.2,0.3l0.1-40.8C203,62.6,203,62.5,203.1,62.4"/>
										<path class="st63" d="M202.9,62.7l-0.1,40.7c-0.1,0.1-0.1,0.2-0.2,0.3l0.1-40.8L202.9,62.7"/>
										<path class="st64" d="M202.7,63l-0.1,40.8c-0.1,0.1-0.1,0.2-0.2,0.3l0.1-40.8C202.5,63.2,202.6,63.1,202.7,63"/>
										<path class="st65" d="M202.5,63.3l-0.1,40.8c-0.1,0.1-0.2,0.2-0.2,0.3l0.1-40.8C202.3,63.5,202.4,63.4,202.5,63.3"/>
										<path class="st66" d="M202.2,63.6l-0.1,40.8l-0.3,0.3l0.1-40.8L202.2,63.6"/>
										<path class="st67" d="M201.9,64l-0.1,40.8l-0.3,0.3l0.1-40.8L201.9,64"/>
										<path class="st68" d="M201.7,64.3l-0.1,40.8l-0.3,0.3l0.1-40.8L201.7,64.3"/>
										<path class="st68" d="M201.4,64.7l-0.1,40.8l-0.3,0.3l0.1-40.8L201.4,64.7"/>
										<path class="st69" d="M201.1,65l-0.1,40.8l-0.3,0.3l0.1-40.8L201.1,65"/>
										<path class="st70" d="M200.8,65.4l-0.1,40.8c-0.1,0.1-0.2,0.2-0.3,0.3l0.1-40.8C200.6,65.6,200.7,65.5,200.8,65.4"/>
										<path class="st70" d="M200.5,65.7l-0.1,40.8l-0.3,0.3l0.1-40.8C200.3,66,200.4,65.9,200.5,65.7"/>
										<path class="st71" d="M200.2,66.1l-0.1,40.8l-0.4,0.4l0.1-40.8L200.2,66.1"/>
										<path class="st72" d="M199.8,66.5l-0.1,40.8l-0.4,0.4l0.1-40.8C199.6,66.8,199.7,66.6,199.8,66.5"/>
										<path class="st73" d="M199.4,66.9l-0.1,40.8l-0.4,0.4l0.1-40.8L199.4,66.9"/>
										<path class="st73" d="M199,67.3l-0.1,40.8l-0.4,0.4l0.1-40.8L199,67.3"/>
										<path class="st74" d="M198.6,67.7l-0.1,40.8l-0.4,0.4l0.1-40.8L198.6,67.7"/>
										<path class="st75" d="M198.2,68.1l-0.2,40.8l-0.4,0.4l0.1-40.8L198.2,68.1"/>
										<path class="st76" d="M197.7,68.5l-0.1,40.8l-0.4,0.4l0.1-40.7L197.7,68.5"/>
										<path class="st77" d="M197.3,69l-0.1,40.8l-0.6,0.5l0.1-40.8L197.3,69"/>
										<path class="st78" d="M196.7,69.5l-0.1,40.8l-0.6,0.5l0.1-40.7L196.7,69.5"/>
										<path class="st79" d="M196.1,70l-0.1,40.7l-0.6,0.5l0.1-40.8L196.1,70"/>
										<path class="st80" d="M195.4,70.5l-0.1,40.8l-0.6,0.5l0.1-40.8L195.4,70.5"/>
										<path class="st81" d="M194.8,71l-0.1,40.8l-0.7,0.5l0.1-40.8L194.8,71"/>
										<path class="st81" d="M194.1,71.5l-0.1,40.8l-0.9,0.7l0.1-40.8L194.1,71.5"/>
										<path class="st82" d="M193.3,72.2l-0.1,40.8l-1,0.7l0.1-40.8L193.3,72.2"/>
										<path class="st83" d="M192.3,72.9l-0.1,40.8l-1,0.7l0.1-40.8C191.6,73.3,192,73.1,192.3,72.9"/>
										<path class="st83" d="M191.3,73.6l-0.1,40.8l-1,0.7l0.1-40.8L191.3,73.6"/>
										<path class="st84" d="M190.2,74.3l-0.1,40.7l-0.1,0.1L190.2,74.3L190.2,74.3"/>
									</g>
								</g>
							</g>
						</g>
					</g>
				</g>
				<polygon class="st14" points="190.1,74.3 190,115.1 150.7,92.3 150.8,51.6 				"/>
				<g>
					<g>
						<g>
							<g>
								<defs>
									<path id="SVGID_5_" d="M49.2,119.2l0.1-40.8c0-3.2,2.2-6.6,7-9.9l-0.1,40.8C51.4,112.6,49.2,116,49.2,119.2z"/>
								</defs>
								<clipPath id="SVGID_6_">
									<use xlink:href="#SVGID_5_"  style="overflow:visible;"/>
								</clipPath>
								<g class="st89">
									<g>
										<path class="st83" d="M56.3,68.5l-0.1,40.8l-0.1,0.1l0.1-40.8L56.3,68.5"/>
										<path class="st82" d="M56.2,68.6L56,109.4l-0.5,0.3l0.1-40.8L56.2,68.6"/>
										<path class="st81" d="M55.7,68.9l-0.1,40.8l-0.4,0.3l0.1-40.8L55.7,68.9"/>
										<path class="st81" d="M55.3,69.3L55.2,110l-0.4,0.3l0.1-40.8L55.3,69.3"/>
										<path class="st80" d="M54.9,69.6l-0.1,40.8l-0.3,0.3l0.1-40.8L54.9,69.6"/>
										<path class="st79" d="M54.5,69.8l-0.1,40.8l-0.3,0.2L54.2,70L54.5,69.8"/>
										<path class="st78" d="M54.2,70.1l-0.1,40.8c-0.1,0.1-0.2,0.2-0.3,0.2L54,70.3L54.2,70.1"/>
										<path class="st77" d="M54,70.3l-0.1,40.8l-0.3,0.2l0.1-40.8L54,70.3"/>
										<path class="st76" d="M53.7,70.6l-0.1,40.8l-0.2,0.2l0.1-40.8L53.7,70.6"/>
										<path class="st75" d="M53.4,70.8l-0.1,40.8l-0.2,0.2L53.2,71L53.4,70.8"/>
										<path class="st74" d="M53.2,71l-0.1,40.8l-0.2,0.2L53,71.2L53.2,71"/>
										<path class="st73" d="M53,71.2L52.9,112l-0.2,0.2l0.1-40.8L53,71.2"/>
										<path class="st73" d="M52.8,71.4l-0.1,40.8l-0.2,0.2l0.1-40.8L52.8,71.4"/>
										<path class="st72" d="M52.6,71.6l-0.1,40.8l-0.2,0.2l0.1-40.8C52.5,71.7,52.5,71.7,52.6,71.6"/>
										<path class="st71" d="M52.4,71.8l-0.1,40.8l-0.2,0.2L52.3,72L52.4,71.8"/>
										<path class="st70" d="M52.3,72l-0.1,40.8L52,113l0.1-40.8L52.3,72"/>
										<path class="st70" d="M52.1,72.1L52,112.9l-0.2,0.2L52,72.3L52.1,72.1"/>
										<path class="st69" d="M52,72.3L51.9,113l-0.1,0.2L52,72.3L52,72.3"/>
										<path class="st68" d="M51.8,72.4l-0.1,40.8l-0.1,0.2l0.1-40.8L51.8,72.4"/>
										<path class="st68" d="M51.7,72.6l-0.1,40.8l-0.1,0.2l0.1-40.8L51.7,72.6"/>
										<path class="st67" d="M51.6,72.8l-0.1,40.8l-0.1,0.2L51.5,73L51.6,72.8"/>
										<path class="st66" d="M51.4,72.9l-0.1,40.8l-0.1,0.1L51.4,72.9C51.4,73,51.4,73,51.4,72.9"/>
										<path class="st65" d="M51.3,73.1l-0.1,40.8l-0.1,0.1L51.3,73.1L51.3,73.1"/>
										<path class="st64" d="M51.2,73.2L51.1,114l-0.1,0.1l0.1-40.8L51.2,73.2"/>
										<path class="st63" d="M51.1,73.4L51,114.1l-0.1,0.1L51.1,73.4L51.1,73.4"/>
										<path class="st62" d="M51,73.5l-0.1,40.8l-0.1,0.1l0.1-40.8L51,73.5"/>
										<path class="st61" d="M50.9,73.6l-0.1,40.8l-0.1,0.1L50.9,73.6L50.9,73.6"/>
										<path class="st60" d="M50.8,73.8l-0.1,40.8l-0.1,0.1l0.1-40.8L50.8,73.8"/>
										<path class="st60" d="M50.7,73.9l-0.1,40.8l-0.1,0.1L50.7,73.9L50.7,73.9"/>
										<path class="st59" d="M50.7,74l-0.1,40.8l-0.1,0.1l0.1-40.8L50.7,74"/>
										<path class="st58" d="M50.6,74.2L50.5,115l-0.1,0.1l0.1-40.8L50.6,74.2"/>
										<path class="st57" d="M50.5,74.3l-0.1,40.8c0,0,0,0.1-0.1,0.1l0.1-40.8C50.4,74.4,50.5,74.3,50.5,74.3"/>
										<path class="st57" d="M50.4,74.4l-0.1,40.8c0,0,0,0.1-0.1,0.1L50.4,74.4C50.4,74.5,50.4,74.5,50.4,74.4"/>
										<path class="st56" d="M50.4,74.5l-0.1,40.8l-0.1,0.1l0.1-40.8L50.4,74.5"/>
										<path class="st55" d="M50.3,74.7l-0.1,40.8l-0.1,0.1l0.1-40.8L50.3,74.7"/>
										<path class="st55" d="M50.2,74.8l-0.1,40.8l-0.1,0.1l0.1-40.8L50.2,74.8"/>
										<path class="st54" d="M50.2,74.9l-0.1,40.8l-0.1,0.1L50.1,75L50.2,74.9"/>
										<path class="st53" d="M50.1,75L50,115.8l-0.1,0.1L50.1,75L50.1,75"/>
										<path class="st52" d="M50.1,75.2L50,116v0.1V75.3C50,75.2,50,75.2,50.1,75.2"/>
										<path class="st51" d="M50,75.3L49.9,116v0.1L50,75.3L50,75.3"/>
										<path class="st50" d="M50,75.4l-0.1,40.8v0.1L50,75.4L50,75.4"/>
										<path class="st50" d="M49.9,75.5l-0.1,40.8v0.1l0.1-40.8V75.5"/>
										<path class="st49" d="M49.9,75.6l-0.1,40.8v0.1L49.9,75.6C49.9,75.7,49.9,75.7,49.9,75.6"/>
										<path class="st48" d="M49.8,75.7l-0.1,40.8v0.1l0.1-40.8C49.8,75.8,49.8,75.8,49.8,75.7"/>
										<path class="st48" d="M49.8,75.8l-0.1,40.8v0.1V76C49.7,76,49.8,75.9,49.8,75.8"/>
										<path class="st47" d="M49.7,76l-0.1,40.8v0.1l0.1-40.8V76"/>
										<path class="st46" d="M49.7,76.1l-0.1,40.8v0.1L49.7,76.1L49.7,76.1"/>
										<path class="st45" d="M49.7,76.2L49.6,117v0.1l0.1-40.8L49.7,76.2"/>
										<path class="st45" d="M49.6,76.3L49.5,117v0.1L49.6,76.3C49.6,76.4,49.6,76.3,49.6,76.3"/>
										<path class="st44" d="M49.6,76.4l-0.1,40.8v0.1L49.6,76.4L49.6,76.4"/>
										<path class="st43" d="M49.6,76.5l-0.1,40.8v0.1l0.1-40.8V76.5"/>
										<path class="st43" d="M49.5,76.6l-0.1,40.8v0.1L49.5,76.6L49.5,76.6"/>
										<path class="st42" d="M49.5,76.7l-0.1,40.8v0.1L49.5,76.7L49.5,76.7"/>
										<path class="st41" d="M49.5,76.8l-0.1,40.8v0.1l0.1-40.8C49.5,76.9,49.5,76.9,49.5,76.8"/>
										<path class="st40" d="M49.5,76.9l-0.1,40.8v0.1L49.5,76.9L49.5,76.9"/>
										<path class="st39" d="M49.4,77l-0.1,40.8v0.1l0.1-40.8C49.4,77.1,49.4,77.1,49.4,77"/>
										<path class="st38" d="M49.4,77.2L49.3,118v0.1l0.1-40.8L49.4,77.2"/>
										<path class="st38" d="M49.4,77.3L49.3,118v0.1L49.4,77.3L49.4,77.3"/>
										<path class="st37" d="M49.4,77.4l-0.1,40.8v0.1L49.4,77.4L49.4,77.4"/>
										<path class="st36" d="M49.4,77.5l-0.1,40.8v0.1l0.1-40.8C49.4,77.6,49.4,77.5,49.4,77.5"/>
										<path class="st36" d="M49.3,77.6l-0.1,40.8v0.1L49.3,77.6L49.3,77.6"/>
										<path class="st35" d="M49.3,77.7l-0.1,40.8v0.1l0.1-40.8V77.7"/>
										<path class="st34" d="M49.3,77.8l-0.1,40.8v0.1l0.1-40.8C49.3,77.9,49.3,77.8,49.3,77.8"/>
										<path class="st33" d="M49.3,77.9l-0.1,40.8v0.1L49.3,77.9C49.3,78,49.3,77.9,49.3,77.9"/>
										<path class="st33" d="M49.3,78l-0.1,40.8v0.1l0.1-40.8C49.3,78.1,49.3,78,49.3,78"/>
										<path class="st32" d="M49.3,78.1l-0.1,40.8v0.1L49.3,78.1L49.3,78.1"/>
										<path class="st31" d="M49.3,78.2L49.2,119v0.1l0.1-40.8V78.2"/>
										<path class="st31" d="M49.3,78.3l-0.1,40.8v0.1l0.1-40.8C49.3,78.4,49.3,78.4,49.3,78.3"/>
									</g>
								</g>
							</g>
						</g>
					</g>
				</g>
				<g>
					<g>
						<g>
							<g>
								<defs>
									<path id="SVGID_7_" d="M94.6,83.4l-0.1,40.8C94.5,111.3,63,92.4,63,73l0.1-40.8C63.1,51.5,94.7,70.5,94.6,83.4z"/>
								</defs>
								<clipPath id="SVGID_8_">
									<use xlink:href="#SVGID_7_"  style="overflow:visible;"/>
								</clipPath>
								<g class="st90">
									<g>
										<path class="st1" d="M94.6,83.4l-0.1,40.8C94.5,111.3,63,92.4,63,73l0.1-40.8C63.1,51.5,94.6,70.5,94.6,83.4"/>
									</g>
								</g>
							</g>
						</g>
					</g>
				</g>
				<g>
					<g>
						<g>
							<g>
								<defs>
									<path id="SVGID_9_" d="M145.9,90.5l-0.1,40.8c0,7.1-4.3,14.2-15.8,21c-25,14.5-65.2,15.2-100.2-4.9
										C11,136.4,0,123.7,0,111.4l0.1-40.8c0,12.3,11,25,29.8,35.9c34.9,20.2,75.2,19.4,100.2,4.9
										C141.7,104.7,145.9,97.6,145.9,90.5z"/>
								</defs>
								<clipPath id="SVGID_10_">
									<use xlink:href="#SVGID_9_"  style="overflow:visible;"/>
								</clipPath>
								<g class="st91">
									<g>
										<path class="st31" d="M145.9,90.5l-0.1,40.8v0.2l0.1-40.8V90.5"/>
										<path class="st31" d="M145.9,90.6l-0.1,40.8c0,0.1,0,0.2,0,0.3l0.1-40.8V90.6"/>
										<path class="st32" d="M145.9,90.9l-0.1,40.8c0,0.1,0,0.2,0,0.3l0.1-40.7C145.9,91.1,145.9,91,145.9,90.9"/>
										<path class="st33" d="M145.9,91.2l-0.1,40.7c0,0.1,0,0.2,0,0.3l0.1-40.8C145.9,91.3,145.9,91.2,145.9,91.2"/>
										<path class="st33" d="M145.9,91.4l-0.1,40.8c0,0.1,0,0.2,0,0.3l0.1-40.8C145.9,91.6,145.9,91.5,145.9,91.4"/>
										<path class="st34" d="M145.9,91.7l-0.1,40.8c0,0.1,0,0.2,0,0.3l0.1-40.7C145.9,91.9,145.9,91.8,145.9,91.7"/>
										<path class="st35" d="M145.9,92l-0.1,40.7c0,0.1,0,0.2,0,0.3l0.1-40.8V92"/>
										<path class="st36" d="M145.9,92.2l-0.1,40.8v0.3l0.1-40.8V92.2"/>
										<path class="st36" d="M145.8,92.5l-0.1,40.8c0,0.1,0,0.2,0,0.3l0.1-40.8V92.5"/>
										<path class="st37" d="M145.8,92.8l-0.1,40.8c0,0.1,0,0.2,0,0.3l0.1-40.8C145.8,92.9,145.8,92.8,145.8,92.8"/>
										<path class="st38" d="M145.8,93l-0.1,40.8c0,0.1,0,0.2,0,0.3l0.1-40.8C145.8,93.2,145.8,93.1,145.8,93"/>
										<path class="st38" d="M145.7,93.3l-0.1,40.8c0,0.1,0,0.2,0,0.3l0.1-40.8C145.7,93.5,145.7,93.4,145.7,93.3"/>
										<path class="st39" d="M145.7,93.5l-0.1,40.8c0,0.1,0,0.1-0.1,0.2l0.1-40.8C145.6,93.7,145.6,93.6,145.7,93.5"/>
										<path class="st40" d="M145.6,93.8l-0.1,40.8c0,0.1,0,0.2-0.1,0.2l0.1-40.8C145.6,93.9,145.6,93.8,145.6,93.8"/>
										<path class="st41" d="M145.6,94l-0.1,40.7c0,0.1,0,0.2,0,0.2L145.6,94C145.6,94.1,145.6,94.1,145.6,94"/>
										<path class="st42" d="M145.5,94.2l-0.1,40.7c0,0.1,0,0.1-0.1,0.2l0.1-40.8L145.5,94.2"/>
										<path class="st43" d="M145.5,94.5l-0.1,40.8l-0.1,0.2l0.1-40.8C145.4,94.6,145.4,94.6,145.5,94.5"/>
										<path class="st43" d="M145.4,94.7l-0.1,40.8l-0.1,0.2l0.1-40.7C145.3,94.9,145.3,94.8,145.4,94.7"/>
										<path class="st44" d="M145.3,95l-0.1,40.8c0,0.1,0,0.2-0.1,0.2l0.1-40.7L145.3,95"/>
										<path class="st45" d="M145.3,95.2l-0.1,40.7c0,0.1,0,0.2-0.1,0.2l0.1-40.8C145.2,95.3,145.2,95.3,145.3,95.2"/>
										<path class="st45" d="M145.2,95.4l-0.1,40.8c0,0.1,0,0.2-0.1,0.2l0.1-40.8C145.1,95.6,145.2,95.5,145.2,95.4"/>
										<path class="st46" d="M145.1,95.6l-0.1,40.8c0,0.1-0.1,0.2-0.1,0.2l0.1-40.7C145,95.8,145.1,95.7,145.1,95.6"/>
										<path class="st47" d="M145.1,95.9l-0.1,40.7c0,0.1-0.1,0.2-0.1,0.2L145,96C145,96,145.1,96,145.1,95.9"/>
										<path class="st48" d="M145,96.1l-0.1,40.8l-0.1,0.2l0.1-40.8L145,96.1"/>
										<path class="st48" d="M144.9,96.3l-0.1,40.8c0,0.1-0.1,0.2-0.1,0.2l0.1-40.7L144.9,96.3"/>
										<path class="st49" d="M144.8,96.6l-0.1,40.7c0,0.1-0.1,0.2-0.1,0.2l0.1-40.8L144.8,96.6"/>
										<path class="st50" d="M144.7,96.8l-0.1,40.8l-0.1,0.2l0.1-40.8L144.7,96.8"/>
										<path class="st50" d="M144.6,97l-0.1,40.8c0,0.1-0.1,0.2-0.1,0.2l0.1-40.8C144.5,97.2,144.6,97.1,144.6,97"/>
										<path class="st51" d="M144.5,97.3l-0.1,40.7c0,0.1-0.1,0.2-0.1,0.2l0.1-40.8C144.5,97.4,144.5,97.3,144.5,97.3"/>
										<path class="st52" d="M144.4,97.5l-0.1,40.8c0,0.1-0.1,0.1-0.1,0.2l0.1-40.8L144.4,97.5"/>
										<path class="st53" d="M144.3,97.7l-0.1,40.8c0,0.1-0.1,0.2-0.1,0.2l0.1-40.7C144.2,97.9,144.3,97.8,144.3,97.7"/>
										<path class="st54" d="M144.2,98l-0.1,40.8L144,139l0.1-40.7L144.2,98"/>
										<path class="st55" d="M144.1,98.2L144,139c0,0.1-0.1,0.2-0.1,0.2l0.1-40.8L144.1,98.2"/>
										<path class="st55" d="M144,98.5l-0.1,40.8l-0.1,0.2l0.1-40.8L144,98.5"/>
										<path class="st56" d="M143.8,98.7l-0.1,40.8c0,0.1-0.1,0.2-0.1,0.2l0.1-40.7L143.8,98.7"/>
										<path class="st57" d="M143.7,99l-0.1,40.8l-0.1,0.2l0.1-40.8L143.7,99"/>
										<path class="st57" d="M143.6,99.2l-0.1,40.8c0,0.1-0.1,0.2-0.1,0.2l0.1-40.7C143.5,99.4,143.5,99.3,143.6,99.2"/>
										<path class="st58" d="M143.4,99.5l-0.1,40.7l-0.1,0.2l0.1-40.8L143.4,99.5"/>
										<path class="st59" d="M143.3,99.7l-0.1,40.8l-0.1,0.2l0.1-40.8L143.3,99.7"/>
										<path class="st60" d="M143.1,100l-0.1,40.7l-0.1,0.2l0.1-40.8C143,100.1,143.1,100,143.1,100"/>
										<path class="st60" d="M143,100.2l-0.1,40.8c-0.1,0.1-0.1,0.2-0.2,0.2l0.1-40.8C142.9,100.4,142.9,100.3,143,100.2"/>
										<path class="st61" d="M142.8,100.4l-0.1,40.8l-0.2,0.2l0.1-40.8L142.8,100.4"/>
										<path class="st62" d="M142.6,100.7l-0.1,40.8l-0.2,0.2l0.1-40.8L142.6,100.7"/>
										<path class="st63" d="M142.5,100.9l-0.1,40.8l-0.2,0.2l0.1-40.8L142.5,100.9"/>
										<path class="st64" d="M142.3,101.2l-0.1,40.8l-0.2,0.2l0.1-40.8L142.3,101.2"/>
										<path class="st65" d="M142.1,101.4l-0.1,40.8l-0.2,0.2l0.1-40.8L142.1,101.4"/>
										<path class="st66" d="M141.9,101.7l-0.1,40.8c-0.1,0.1-0.1,0.2-0.2,0.2l0.1-40.8C141.8,101.8,141.9,101.7,141.9,101.7"/>
										<path class="st67" d="M141.8,101.9l-0.1,40.8l-0.2,0.2l0.1-40.8L141.8,101.9"/>
										<path class="st68" d="M141.6,102.1l-0.1,40.8l-0.2,0.2l0.1-40.7L141.6,102.1"/>
										<path class="st68" d="M141.4,102.4l-0.1,40.7l-0.2,0.3l0.1-40.8L141.4,102.4"/>
										<path class="st69" d="M141.1,102.7l-0.1,40.8l-0.3,0.3l0.1-40.8L141.1,102.7"/>
										<path class="st70" d="M140.9,103l-0.1,40.8l-0.3,0.3l0.1-40.8C140.7,103.2,140.8,103.1,140.9,103"/>
										<path class="st70" d="M140.6,103.3l-0.1,40.8l-0.3,0.3l0.1-40.8L140.6,103.3"/>
										<path class="st71" d="M140.3,103.6l-0.1,40.8l-0.3,0.3L140,104L140.3,103.6"/>
										<path class="st72" d="M140,104l-0.1,40.8l-0.3,0.3l0.1-40.8L140,104"/>
										<path class="st73" d="M139.6,104.3l-0.1,40.8l-0.3,0.3l0.1-40.8L139.6,104.3"/>
										<path class="st73" d="M139.3,104.6l-0.1,40.8l-0.3,0.3l0.1-40.8L139.3,104.6"/>
										<path class="st74" d="M139,104.9l-0.1,40.8l-0.3,0.3l0.1-40.8L139,104.9"/>
										<path class="st75" d="M138.6,105.3l-0.1,40.7l-0.4,0.3l0.1-40.8L138.6,105.3"/>
										<path class="st76" d="M138.3,105.6l-0.1,40.8l-0.4,0.3l0.1-40.8L138.3,105.6"/>
										<path class="st77" d="M137.9,105.9l-0.1,40.8l-0.4,0.3l0.1-40.8L137.9,105.9"/>
										<path class="st78" d="M137.6,106.2l-0.1,40.8l-0.4,0.3l0.1-40.8L137.6,106.2"/>
										<path class="st79" d="M137.2,106.6l-0.1,40.8l-0.4,0.3l0.1-40.8L137.2,106.6"/>
										<path class="st80" d="M136.8,106.9l-0.1,40.8l-0.6,0.4l0.1-40.7L136.8,106.9"/>
										<path class="st81" d="M136.2,107.3l-0.1,40.8l-0.8,0.6l0.1-40.8L136.2,107.3"/>
										<path class="st81" d="M135.4,107.9l-0.1,40.8l-0.8,0.6l0.1-40.8L135.4,107.9"/>
										<path class="st82" d="M134.6,108.5l-0.1,40.8l-0.9,0.6l0.1-40.8L134.6,108.5"/>
										<path class="st83" d="M133.8,109.1l-0.1,40.8c-0.3,0.2-0.6,0.4-0.9,0.6l0.1-40.8L133.8,109.1"/>
										<path class="st83" d="M132.9,109.7l-0.1,40.8l-0.9,0.6l0.1-40.8C132.3,110.1,132.6,109.9,132.9,109.7"/>
										<path class="st84" d="M132,110.3l-0.1,40.8l-0.9,0.6l0.1-40.8L132,110.3"/>
										<path class="st85" d="M131.1,110.9l-0.1,40.8l-0.9,0.6l-0.1,0.1l0.1-40.8l0.1-0.1L131.1,110.9"/>
										<path class="st86" d="M130,111.5l-0.1,40.8c-0.8,0.4-1.5,0.9-2.3,1.3l0.1-40.7C128.5,112.3,129.2,111.9,130,111.5"/>
										<path class="st87" d="M127.7,112.8l-0.1,40.8c-2.6,1.4-5.3,2.6-8.1,3.6l0.1-40.8C122.4,115.3,125.1,114.1,127.7,112.8"/>
										<path class="st86" d="M119.6,116.4l-0.1,40.8c-0.8,0.3-1.6,0.6-2.4,0.9l0.1-40.7C118,117,118.8,116.7,119.6,116.4"/>
										<path class="st85" d="M117.2,117.2l-0.1,40.7l-1.5,0.5l0.1-40.8L117.2,117.2"/>
										<path class="st84" d="M115.7,117.7l-0.1,40.8L114,159l0.1-40.8L115.7,117.7"/>
										<path class="st83" d="M114.2,118.2l-0.1,40.8l-1.2,0.4l0.1-40.8C113.3,118.5,113.8,118.4,114.2,118.2"/>
										<path class="st83" d="M112.9,118.6l-0.1,40.8l-1,0.3l0.1-40.8L112.9,118.6"/>
										<path class="st82" d="M111.9,118.8l-0.1,40.8l-1,0.3l0.1-40.8L111.9,118.8"/>
										<path class="st81" d="M110.9,119.1l-0.1,40.8l-1,0.2l0.1-40.8L110.9,119.1"/>
										<path class="st81" d="M109.8,119.4l-0.1,40.8l-1,0.2l0.1-40.7L109.8,119.4"/>
										<path class="st80" d="M108.8,119.6l-0.1,40.7l-0.8,0.2l0.1-40.8L108.8,119.6"/>
										<path class="st79" d="M108,119.8l-0.1,40.8l-0.8,0.2l0.1-40.8L108,119.8"/>
										<path class="st78" d="M107.2,120l-0.1,40.8l-0.8,0.2l0.1-40.7L107.2,120"/>
										<path class="st77" d="M106.4,120.1l-0.1,40.8l-0.8,0.2l0.1-40.8L106.4,120.1"/>
										<path class="st76" d="M105.6,120.3l-0.1,40.7l-0.8,0.1l0.1-40.8H105.6"/>
										<path class="st75" d="M104.8,120.4l-0.1,40.8l-0.8,0.1l0.1-40.8L104.8,120.4"/>
										<path class="st74" d="M104,120.6l-0.1,40.8l-0.7,0.1l0.1-40.8L104,120.6"/>
										<path class="st73" d="M103.4,120.7l-0.1,40.8l-0.7,0.1l0.1-40.7L103.4,120.7"/>
										<path class="st73" d="M102.7,120.8l-0.1,40.7l-0.7,0.1l0.1-40.8H102.7"/>
										<path class="st72" d="M102,120.9l-0.1,40.8l-0.7,0.1l0.1-40.8L102,120.9"/>
										<path class="st71" d="M101.4,121l-0.1,40.8l-0.7,0.1l0.1-40.8L101.4,121"/>
										<path class="st70" d="M100.7,121.1l-0.1,40.8l-0.7,0.1l0.1-40.8L100.7,121.1"/>
										<path class="st70" d="M100,121.2L99.9,162l-0.7,0.1l0.1-40.8L100,121.2"/>
										<path class="st69" d="M99.3,121.3L99.2,162l-0.6,0.1l0.1-40.8H99.3"/>
										<path class="st68" d="M98.7,121.3l-0.1,40.8l-0.6,0.1l0.1-40.8L98.7,121.3"/>
										<path class="st68" d="M98.1,121.4L98,162.2l-0.6,0.1l0.1-40.8L98.1,121.4"/>
										<path class="st67" d="M97.5,121.5l-0.1,40.8l-0.6,0.1l0.1-40.8L97.5,121.5"/>
										<path class="st66" d="M96.9,121.5l-0.1,40.8l-0.6,0.1l0.1-40.8L96.9,121.5"/>
										<path class="st65" d="M96.3,121.6l-0.1,40.8l-0.6,0.1l0.1-40.8L96.3,121.6"/>
										<path class="st64" d="M95.7,121.6l-0.1,40.8H95l0.1-40.8L95.7,121.6"/>
										<path class="st63" d="M95.1,121.7L95,162.4l-0.6,0.1l0.1-40.8H95.1"/>
										<path class="st62" d="M94.5,121.7l-0.1,40.8h-0.6l0.1-40.8H94.5"/>
										<path class="st61" d="M93.9,121.8l-0.1,40.8h-0.6l0.1-40.7L93.9,121.8"/>
										<path class="st60" d="M93.3,121.8l-0.1,40.8h-0.6l0.1-40.8H93.3"/>
										<path class="st60" d="M92.8,121.8l-0.1,40.8h-0.6l0.1-40.8H92.8"/>
										<path class="st59" d="M92.2,121.9l-0.1,40.8h-0.6l0.1-40.8L92.2,121.9"/>
										<path class="st58" d="M91.7,121.9l-0.1,40.8H91l0.1-40.8L91.7,121.9"/>
										<path class="st57" d="M91.1,121.9L91,162.7h-0.6l0.1-40.7L91.1,121.9"/>
										<path class="st57" d="M90.6,122l-0.1,40.8h-0.6L90,122H90.6"/>
										<path class="st56" d="M90,122l-0.1,40.8h-0.6l0.1-40.8H90"/>
										<path class="st55" d="M89.4,122l-0.1,40.8h-0.6l0.1-40.8H89.4"/>
										<path class="st55" d="M88.9,122l-0.1,40.8h-0.5l0.1-40.8H88.9"/>
										<path class="st54" d="M88.3,122l-0.1,40.8h-0.5l0.1-40.8H88.3"/>
										<path class="st53" d="M87.8,122l-0.1,40.8h-0.5l0.1-40.8H87.8"/>
										<path class="st52" d="M87.2,122l-0.1,40.8h-0.5l0.1-40.8H87.2"/>
										<path class="st51" d="M86.7,122l-0.1,40.8H86l0.2-40.8H86.7"/>
										<path class="st50" d="M86.2,122L86,162.8h-0.5l0.1-40.8H86.2"/>
										<path class="st50" d="M85.6,122l-0.1,40.8h-0.6L85,122H85.6"/>
										<path class="st49" d="M85.1,122L85,162.8h-0.6l0.1-40.8H85.1"/>
										<path class="st48" d="M84.5,122l-0.1,40.8h-0.5L84,122H84.5"/>
										<path class="st48" d="M84,122l-0.1,40.8h-0.6l0.1-40.8H84"/>
										<path class="st47" d="M83.4,122l-0.1,40.8h-0.5l0.1-40.8H83.4"/>
										<path class="st46" d="M82.9,121.9l-0.1,40.8h-0.5l0.1-40.8L82.9,121.9"/>
										<path class="st45" d="M82.3,121.9l-0.1,40.8h-0.5l0.1-40.8L82.3,121.9"/>
										<path class="st45" d="M81.8,121.9l-0.1,40.8h-0.6l0.1-40.8L81.8,121.9"/>
										<path class="st44" d="M81.2,121.9l-0.1,40.8h-0.5l0.1-40.8L81.2,121.9"/>
										<path class="st43" d="M80.7,121.8l-0.1,40.8H80l0.1-40.7L80.7,121.8"/>
										<path class="st43" d="M80.2,121.8L80,162.5h-0.6l0.1-40.8L80.2,121.8"/>
										<path class="st42" d="M79.6,121.8l-0.1,40.8H79l0.1-40.8H79.6"/>
										<path class="st41" d="M79.1,121.7L79,162.5h-0.6l0.1-40.8H79.1"/>
										<path class="st40" d="M78.5,121.7l-0.1,40.8l-0.6-0.1l0.2-40.7H78.5"/>
										<path class="st39" d="M78,121.6l-0.1,40.7h-0.6l0.1-40.8L78,121.6"/>
										<path class="st38" d="M77.4,121.6l-0.1,40.8l-0.6-0.1l0.1-40.7L77.4,121.6"/>
										<path class="st38" d="M76.8,121.5l-0.1,40.8h-0.6l0.1-40.8H76.8"/>
										<path class="st37" d="M76.3,121.5l-0.1,40.8l-0.6-0.1l0.1-40.7H76.3"/>
										<path class="st36" d="M75.7,121.4l-0.1,40.7L75,162l0.1-40.7L75.7,121.4"/>
										<path class="st36" d="M75.2,121.4L75,162.1l-0.6-0.1l0.1-40.8L75.2,121.4"/>
										<path class="st35" d="M74.6,121.3l-0.1,40.8l-0.6-0.1l0.1-40.8L74.6,121.3"/>
										<path class="st34" d="M74,121.2L73.9,162l-0.6-0.1l0.1-40.8L74,121.2"/>
										<path class="st33" d="M73.5,121.2L73.4,162l-0.6-0.1l0.1-40.7H73.5"/>
										<path class="st33" d="M72.9,121.1l-0.1,40.8l-0.6-0.1l0.1-40.8L72.9,121.1"/>
										<path class="st32" d="M72.3,121l-0.1,40.8l-0.6-0.1l0.1-40.7H72.3"/>
										<path class="st31" d="M71.7,120.9l-0.1,40.7l-0.6-0.1l0.1-40.8L71.7,120.9"/>
										<path class="st31" d="M71.1,120.8L71,161.6l-0.6-0.1l0.1-40.8L71.1,120.8"/>
										<path class="st30" d="M70.5,120.8l-0.1,40.8l-0.6-0.1l0.1-40.8L70.5,120.8"/>
										<path class="st30" d="M69.9,120.7l-0.1,40.8l-0.6-0.1l0.1-40.8L69.9,120.7"/>
										<path class="st29" d="M69.3,120.6l-0.1,40.8l-0.6-0.1l0.1-40.7L69.3,120.6"/>
										<path class="st28" d="M68.7,120.5l-0.1,40.8l-0.6-0.1l0.1-40.8L68.7,120.5"/>
										<path class="st28" d="M68.1,120.4L68,161.1l-0.6-0.1l0.1-40.7L68.1,120.4"/>
										<path class="st27" d="M67.5,120.3L67.4,161l-0.7-0.1l0.1-40.8L67.5,120.3"/>
										<path class="st26" d="M66.8,120.1l-0.1,40.8l-0.7-0.1l0.1-40.8L66.8,120.1"/>
										<path class="st25" d="M66.2,120l-0.1,40.8l-0.7-0.1l0.1-40.8L66.2,120"/>
										<path class="st25" d="M65.6,119.9l-0.1,40.8l-0.7-0.1l0.1-40.8L65.6,119.9"/>
										<path class="st24" d="M64.9,119.8l-0.1,40.8l-0.7-0.1l0.1-40.8L64.9,119.8"/>
										<path class="st23" d="M64.2,119.6l-0.1,40.8l-0.7-0.1l0.1-40.7L64.2,119.6"/>
										<path class="st22" d="M63.6,119.5l-0.1,40.7l-0.7-0.1l0.1-40.8L63.6,119.5"/>
										<path class="st22" d="M62.9,119.3l-0.1,40.8l-0.7-0.1l0.1-40.7H62.9"/>
										<path class="st21" d="M62.3,119.2L62.2,160l-0.7-0.2l0.1-40.8L62.3,119.2"/>
										<path class="st20" d="M61.6,119l-0.1,40.8l-0.7-0.2l0.1-40.8L61.6,119"/>
										<path class="st20" d="M60.8,118.9l-0.1,40.8l-0.7-0.2l0.1-40.7L60.8,118.9"/>
										<path class="st19" d="M60.1,118.7L60,159.4l-0.7-0.2l0.1-40.8L60.1,118.7"/>
										<path class="st19" d="M59.4,118.5l-0.1,40.8l-0.7-0.2l0.1-40.8L59.4,118.5"/>
										<path class="st18" d="M58.6,118.3l-0.1,40.8l-0.7-0.2l0.1-40.8L58.6,118.3"/>
										<path class="st17" d="M57.9,118.1l-0.1,40.8l-0.7-0.2l0.1-40.8L57.9,118.1"/>
										<path class="st17" d="M57.2,117.9L57,158.7l-0.8-0.2l0.1-40.7L57.2,117.9"/>
										<path class="st16" d="M56.4,117.7l-0.1,40.7l-0.8-0.2l0.1-40.8L56.4,117.7"/>
										<path class="st15" d="M55.5,117.4l-0.1,40.8l-0.8-0.2l0.1-40.8L55.5,117.4"/>
										<path class="st14" d="M54.7,117.2L54.6,158l-0.8-0.3l0.1-40.8L54.7,117.2"/>
										<path class="st14" d="M53.8,116.9l-0.1,40.8l-0.8-0.3l0.1-40.8L53.8,116.9"/>
										<path class="st13" d="M53,116.7l-0.1,40.8l-0.8-0.3l0.1-40.7L53,116.7"/>
										<path class="st12" d="M52.1,116.4L52,157.2l-0.9-0.3l0.1-40.8L52.1,116.4"/>
										<path class="st11" d="M51.3,116.1l-0.1,40.8l-1-0.4l0.1-40.7L51.3,116.1"/>
										<path class="st11" d="M50.3,115.8l-0.1,40.7l-1-0.4l0.1-40.8L50.3,115.8"/>
										<path class="st10" d="M49.2,115.4l-0.1,40.8l-1-0.4l0.1-40.7L49.2,115.4"/>
										<path class="st9" d="M48.2,115.1l-0.1,40.7l-1-0.4l0.1-40.8L48.2,115.1"/>
										<path class="st9" d="M47.2,114.7l-0.1,40.8l-1-0.4l0.1-40.7L47.2,114.7"/>
										<path class="st8" d="M46.2,114.3L46.1,155l-1.2-0.5l0.1-40.7L46.2,114.3"/>
										<path class="st8" d="M45,113.8l-0.1,40.7l-1.3-0.5l0.1-40.8L45,113.8"/>
										<path class="st7" d="M43.8,113.3l-0.1,40.8l-1.3-0.5l0.1-40.8C42.9,113,43.3,113.1,43.8,113.3"/>
										<path class="st6" d="M42.5,112.8l-0.1,40.8l-1.3-0.5l0.1-40.8L42.5,112.8"/>
										<path class="st6" d="M41.2,112.2L41.1,153l-1.4-0.6l0.1-40.8L41.2,112.2"/>
										<path class="st5" d="M39.8,111.6l-0.1,40.8l-1.7-0.8l0.1-40.8L39.8,111.6"/>
										<path class="st4" d="M38.1,110.8L38,151.6l-1.7-0.8l0.2-40.8L38.1,110.8"/>
										<path class="st3" d="M36.5,110l-0.1,40.8l-1.8-0.9l0.1-40.7L36.5,110"/>
										<path class="st3" d="M34.7,109.1l-0.1,40.7c-0.8-0.4-1.6-0.8-2.3-1.2l0.1-40.8C33.1,108.3,33.9,108.7,34.7,109.1"/>
										<path class="st2" d="M32.4,107.9l-0.1,40.8c-0.8-0.4-1.5-0.9-2.3-1.3l0.1-40.8C30.8,107,31.5,107.4,32.4,107.9"/>
										<path class="st2" d="M30,106.6l-0.1,40.8h-0.1c-1.3-0.7-2.5-1.5-3.7-2.2l0.1-40.8C27.4,105.1,28.7,105.8,30,106.6
											L30,106.6"/>
										<path class="st1" d="M26.3,104.3l-0.1,40.8C9.5,134.7,0,122.9,0,111.4l0.1-40.8C0.1,82.1,9.6,93.9,26.3,104.3"/>
									</g>
								</g>
							</g>
						</g>
					</g>
				</g>
				<path class="st92" d="M178.6,16.2C211.1,35,217,57,190.1,74.3l-39.4-22.7c8.9-5.9,7.8-13.1-1.8-18.9l-0.6-0.3
					c-8.4-4.9-19.2-5.9-28.3-0.6c-25.8,15,59.7,50.9,10,79.8c-25,14.5-65.2,15.2-100.2-4.9C-2.2,88-11.4,64.2,17.5,46.2l38.7,22.4
					c-10.4,7.2-8.6,14.6,1.6,20.5c10.6,6.2,22.7,7,31.4,2c27.5-16-62-50.5-8.9-80.8C108.4-6.2,147.3-1.9,178.6,16.2z"/>
			</g>
			<g>
				<polygon class="st93" points="293.1,84.8 293,125.5 227.8,163.4 228,122.6 				"/>
				<polygon class="st94" points="385.7,138.2 385.5,179 254.9,187.8 255,147.1 				"/>
				<polygon class="st93" points="210.2,132.9 210.1,173.7 144.5,211.8 144.6,171 				"/>
				<polygon class="st14" points="144.6,171 144.5,211.8 108.2,190.8 108.3,150 				"/>
				<polygon class="st92" points="385.7,138.2 255,147.1 239.4,225.7 194.9,200 210.2,132.9 144.6,171 108.3,150 256.7,63.7 
					293.1,84.8 228,122.6 342.9,113.5 				"/>
				<polygon class="st47" points="255,147.1 254.9,187.8 239.2,266.5 239.4,225.7 				"/>
				<polygon class="st14" points="239.4,225.7 239.2,266.5 194.8,240.8 194.9,200 				"/>
			</g>
		</g>
	</g>
</g>
<rect id="Rectangle_5" x="-237" y="-278.6" class="st95" width="175" height="175"/>
<rect id="Rectangle_6" x="583" y="-278.6" class="st96" width="175" height="175"/>
<rect id="Rectangle_7" x="378" y="-278.6" class="st97" width="175" height="175"/>
<rect id="Rectangle_8" x="173" y="-278.6" class="st98" width="175" height="175"/>
<rect id="Rectangle_9" x="-32" y="-278.6" class="st99" width="175" height="175"/>
<g id="Group_119" transform="translate(0 0)">
	<g id="Group_118">
		<g id="Group_110" transform="translate(0 72.464)">
			<g id="Group_92" transform="translate(128.013 287.777)">
				<g>
					<g>
						<g>
							<defs>
								<path id="SVGID_11_" d="M-1282.8,119.3l-50.1-27.2c8.2,4.4,18.3,5.8,29.8,4.1c29.4-4.1,48.2-22.6,48.2-48.6
									c0-16.4-8.1-26.6-21.2-33.8l50.1,27.3c13.1,7.1,21.2,17.3,21.2,33.8c0,26-18.8,44.5-48.2,48.6
									C-1264.5,125.1-1274.6,123.8-1282.8,119.3z"/>
							</defs>
							<clipPath id="SVGID_12_">
								<use xlink:href="#SVGID_11_"  style="overflow:visible;"/>
							</clipPath>
							<g id="Group_91" class="st100">
								<g id="Group_90">
									<path id="Path_76" class="st98" d="M-1282.8,119.3l-50.1-27.2c0.4,0.2,0.9,0.5,1.3,0.7l50.1,27.3
										C-1281.9,119.8-1282.3,119.6-1282.8,119.3"/>
									<path id="Path_77" class="st98" d="M-1281.5,120l-50.1-27.3c2.3,1.1,4.8,2,7.3,2.7l50.1,27.3
										C-1276.7,122.1-1279.1,121.2-1281.5,120"/>
									<path id="Path_78" class="st98" d="M-1274.1,122.7l-50.1-27.3c6.9,1.6,14.1,1.9,21.1,0.8c7-0.9,13.9-2.9,20.3-5.9
										l50.1,27.3c-6.4,3-13.3,4.9-20.3,5.9C-1260,124.6-1267.2,124.3-1274.1,122.7"/>
									<path id="Path_79" class="st98" d="M-1232.7,117.6l-50.1-27.3c2.8-1.3,5.4-2.8,7.9-4.5l50.1,27.3
										C-1227.3,114.8-1229.9,116.3-1232.7,117.6"/>
									<path id="Path_80" class="st98" d="M-1224.8,113.1l-50.1-27.3c1.8-1.2,3.4-2.5,5-4l50.1,27.3
										C-1221.3,110.6-1223,111.9-1224.8,113.1"/>
									<path id="Path_81" class="st98" d="M-1219.7,109.1l-50.1-27.2c1.3-1.2,2.6-2.5,3.8-3.8l50.1,27.3
										C-1217.1,106.7-1218.4,107.9-1219.7,109.1"/>
									<path id="Path_82" class="st98" d="M-1216,105.3l-50.1-27.3c1.1-1.2,2.1-2.6,3.1-3.9l50.1,27.3
										C-1213.8,102.8-1214.9,104.1-1216,105.3"/>
									<path id="Path_83" class="st98" d="M-1212.9,101.4l-50.1-27.3c1-1.4,1.9-2.9,2.7-4.4l50.1,27.3
										C-1211,98.5-1211.9,100-1212.9,101.4"/>
									<path id="Path_84" class="st98" d="M-1210.2,97l-50.1-27.3c1-1.8,1.8-3.7,2.6-5.7l50.1,27.3
										C-1208.3,93.3-1209.2,95.2-1210.2,97"/>
									<path id="Path_85" class="st98" d="M-1207.6,91.3l-50.1-27.3c1.9-5.3,2.8-10.8,2.8-16.4c0-16.4-8.1-26.6-21.2-33.8
										l50.1,27.3c13.1,7.1,21.2,17.3,21.2,33.8C-1204.8,80.5-1205.7,86.1-1207.6,91.3"/>
								</g>
							</g>
						</g>
					</g>
				</g>
			</g>
			<g id="Group_95" transform="translate(177.989 93.759)">
				<g>
					<g>
						<g>
							<defs>
								<path id="SVGID_13_" d="M-1332.9,13.9l50.1,27.3c11.4,6.2,18.6,18.2,19.6,35.1l-50.1-27.3
									C-1314.3,32.1-1321.5,20.1-1332.9,13.9z"/>
							</defs>
							<clipPath id="SVGID_14_">
								<use xlink:href="#SVGID_13_"  style="overflow:visible;"/>
							</clipPath>
							<g id="Group_94" class="st101">
								<g id="Group_93">
									<path id="Path_87" class="st98" d="M-1263.2,76.3l-50.1-27.3c-1-17-8.2-28.9-19.6-35.1l50.1,27.3
										C-1271.4,47.4-1264.2,59.3-1263.2,76.3"/>
								</g>
							</g>
						</g>
					</g>
				</g>
			</g>
			<g id="Group_98" transform="translate(128.668 168.011)">
				<g>
					<g>
						<g>
							<defs>
								<path id="SVGID_15_" d="M-1282.8,41.2l-50.1-27.3c31,16.8,89.9,17.6,132.4,40.7l50.1,27.3
									C-1192.9,58.8-1251.8,58-1282.8,41.2z"/>
							</defs>
							<clipPath id="SVGID_16_">
								<use xlink:href="#SVGID_15_"  style="overflow:visible;"/>
							</clipPath>
							<g id="Group_97" class="st102">
								<g id="Group_96">
									<path id="Path_89" class="st98" d="M-1282.8,41.2l-50.1-27.3c1,0.6,2.1,1.1,3.2,1.6l50.1,27.3
										C-1280.7,42.3-1281.7,41.7-1282.8,41.2"/>
									<path id="Path_90" class="st98" d="M-1279.6,42.8l-50.1-27.3c7.8,3.8,17.1,6.7,27.3,9.3l50.1,27.3
										C-1262.5,49.5-1271.8,46.6-1279.6,42.8"/>
									<path id="Path_91" class="st98" d="M-1252.2,52.1l-50.1-27.3c16.9,4.3,36.2,7.7,55.3,12.6l50.1,27.3
										C-1216,59.8-1235.4,56.4-1252.2,52.1"/>
									<path id="Path_92" class="st98" d="M-1196.9,64.7l-50.1-27.3c14.3,3.7,28.5,8.2,41.4,14.5l50.1,27.3
										C-1168.4,72.9-1182.6,68.4-1196.9,64.7"/>
									<path id="Path_93" class="st98" d="M-1155.5,79.2l-50.1-27.3c1.8,0.9,3.5,1.8,5.2,2.7l50.1,27.3
										C-1152,81-1153.8,80.1-1155.5,79.2"/>
								</g>
							</g>
						</g>
					</g>
				</g>
			</g>
			<g id="Group_101" transform="translate(0.001 341.611)">
				<g>
					<g>
						<g>
							<defs>
								<path id="SVGID_17_" d="M-1226.3,141.9l-50.1-27.3c-33.6-18.2-55-51.7-56.5-100.7l50.1,27.3
									C-1281.3,90.1-1259.9,123.6-1226.3,141.9z"/>
							</defs>
							<clipPath id="SVGID_18_">
								<use xlink:href="#SVGID_17_"  style="overflow:visible;"/>
							</clipPath>
							<g id="Group_100" class="st103">
								<g id="Group_99">
									<path id="Path_95" class="st98" d="M-1226.3,141.9l-50.1-27.3c-33.6-18.2-55-51.7-56.5-100.7l50.1,27.3
										C-1281.3,90.1-1259.9,123.6-1226.3,141.9"/>
								</g>
							</g>
						</g>
					</g>
				</g>
			</g>
			<g id="Group_102" transform="translate(0 326.597)">
				<path id="Path_97" class="st97" d="M-1282.8,56.2l-50.1-27.3l106.8-15l50.1,27.3L-1282.8,56.2z"/>
			</g>
			<g id="Group_105" transform="translate(152.029)">
				<g>
					<g>
						<g>
							<defs>
								<path id="SVGID_19_" d="M-1233.7,29.3l50.1,27.3c-25.8-14-59.7-18.6-99.2-13.1l-50.1-27.3
									C-1293.4,10.6-1259.5,15.2-1233.7,29.3z"/>
							</defs>
							<clipPath id="SVGID_20_">
								<use xlink:href="#SVGID_19_"  style="overflow:visible;"/>
							</clipPath>
							<g id="Group_104" class="st104">
								<g id="Group_103" transform="translate(0 -0.001)">
									<path id="Path_98" class="st97" d="M-1282.8,43.5l-50.1-27.3c27-3.8,51.3-2.9,72.2,2.6l50.1,27.3
										C-1231.5,40.6-1255.8,39.7-1282.8,43.5"/>
									<path id="Path_99" class="st97" d="M-1210.6,46l-50.1-27.3c7.9,2,15.6,4.8,22.9,8.4l50.1,27.3
										C-1195,50.9-1202.7,48-1210.6,46"/>
									<path id="Path_100" class="st97" d="M-1187.7,54.4l-50.1-27.3c1.4,0.7,2.7,1.4,4.1,2.1l50.1,27.3
										C-1184.9,55.8-1186.3,55.1-1187.7,54.4"/>
								</g>
							</g>
						</g>
					</g>
				</g>
			</g>
			<g id="Group_108" transform="translate(1.518 2.299)">
				<g>
					<g>
						<g>
							<defs>
								<path id="SVGID_21_" d="M-1232.9,287.2l-50.1-27.3c-29-15.8-50.3-42.7-49.8-93.8c0.2-84.3,64.2-140.1,150.5-152.3l50.1,27.3
									c-86.3,12.1-150.3,68-150.5,152.3C-1283.2,244.6-1262,271.4-1232.9,287.2z"/>
							</defs>
							<clipPath id="SVGID_22_">
								<use xlink:href="#SVGID_21_"  style="overflow:visible;"/>
							</clipPath>
							<g id="Group_107" class="st105">
								<g id="Group_106">
									<path id="Path_102" class="st97" d="M-1232.9,287.2l-50.1-27.3c-29-15.8-50.3-42.7-49.8-93.8c-0.1-17.3,2.9-34.5,8.8-50.8
										l50.1,27.3c-5.9,16.3-8.8,33.5-8.8,50.8C-1283.2,244.6-1262,271.5-1232.9,287.2"/>
									<path id="Path_103" class="st97" d="M-1274,142.6l-50.1-27.3c2.2-6.1,4.9-12.1,8-17.9l50.1,27.3
										C-1269.1,130.5-1271.8,136.4-1274,142.6"/>
									<path id="Path_104" class="st97" d="M-1266,124.7l-50.1-27.3c2.6-4.8,5.4-9.4,8.5-13.8l50.1,27.3
										C-1260.6,115.3-1263.4,119.9-1266,124.7"/>
									<path id="Path_105" class="st97" d="M-1257.5,110.9l-50.1-27.3c3-4.3,6.3-8.5,9.8-12.4l50.1,27.3
										C-1251.2,102.4-1254.4,106.6-1257.5,110.9"/>
									<path id="Path_106" class="st97" d="M-1247.7,98.4l-50.1-27.3c3.8-4.3,7.8-8.3,12.1-12.2l50.1,27.3
										C-1239.9,90.1-1243.9,94.2-1247.7,98.4"/>
									<path id="Path_107" class="st97" d="M-1235.6,86.3l-50.1-27.3c5.1-4.5,10.4-8.7,16-12.6l50.1,27.3
										C-1225.2,77.5-1230.5,81.8-1235.6,86.3"/>
									<path id="Path_108" class="st97" d="M-1219.6,73.7l-50.1-27.3c8-5.5,16.5-10.4,25.3-14.5l50.1,27.3
										C-1203.1,63.3-1211.6,68.2-1219.6,73.7"/>
									<path id="Path_109" class="st97" d="M-1194.3,59.2l-50.1-27.3c19.7-9.1,40.6-15.2,62-18l50.1,27.3
										C-1153.7,44-1174.6,50.1-1194.3,59.2"/>
								</g>
							</g>
						</g>
					</g>
				</g>
			</g>
			<g id="Group_109" transform="translate(50.106 27.257)">
				<path id="Path_111" class="st96" d="M-1180.9,16.2c89.8-12.6,150.2,27,154.1,111.3l-108.5,15.3c-1.7-28.3-20.4-42.7-47.5-39.6
					c-0.5,0.1-1.1,0.1-1.6,0.2c-23.3,3.3-40.7,19-40.7,46.3c-0.1,77.3,203.6,13.8,203.3,162.7c-0.1,74.8-54.3,144.5-150.5,158
					c-88.6,12.5-157.8-25.3-160.6-114.9l106.8-15c2.9,33.8,22.8,47.5,51,43.5c29.4-4.1,48.2-22.6,48.2-48.6
					c0.2-82.4-206-9.1-204.5-167C-1331.2,84.2-1267.1,28.3-1180.9,16.2z"/>
			</g>
		</g>
		<g id="Group_117" transform="translate(372.486)">
			<g id="Group_111" transform="translate(100.737 284.238)">
				<path id="Path_112" class="st98" d="M-1144.6,218.1l-50.1-27.3l-138.2-176.9l50.1,27.3L-1144.6,218.1z"/>
			</g>
			<g id="Group_112" transform="translate(238.55)">
				<path id="Path_113" class="st97" d="M-1282.8,57.7l-50.1-27.3l118-16.6l50.1,27.3L-1282.8,57.7z"/>
			</g>
			<g id="Group_113" transform="translate(100.836 16.581)">
				<path id="Path_114" class="st98" d="M-1282.8,255.6l-50.1-27.3l137.7-214.4l50.1,27.3L-1282.8,255.6z"/>
			</g>
			<g id="Group_114" transform="translate(50.106 27.257)">
				<path id="Path_115" class="st96" d="M-976.4,13.9l-160.1,240.4l165.1,203.5l-122.7,17.2l-138.1-176.9l-0.4,196.4l-100.3,14.1
					l0.8-444.7l100.4-14.1l-0.4,195.1l137.7-214.4L-976.4,13.9z"/>
			</g>
			<g id="Group_115" transform="translate(0 49.991)">
				<path id="Path_116" class="st98" d="M-1282.8,485.9l-50.1-27.3l0.8-444.7l50.1,27.3L-1282.8,485.9z"/>
			</g>
			<g id="Group_116" transform="translate(0.826 35.885)">
				<path id="Path_117" class="st97" d="M-1282.8,55.3l-50.1-27.3l100.4-14.1l50.1,27.3L-1282.8,55.3z"/>
			</g>
		</g>
	</g>
</g>
<g id="Group_1" transform="translate(0 0)">
	<g id="Group_2">
		<g id="Group_4" transform="translate(0 72.464)">
			<g>
				<path class="st98" d="M53.1,571.5L3,544.2c13.1,7.2,21.2,17.4,21.2,33.8c0,0.7,0,1.5-0.1,2.2c0,0.4,0,0.8-0.1,1.1
					c0,0.3,0,0.7-0.1,1c0,0.5-0.1,1-0.2,1.6c0,0.2,0,0.3-0.1,0.5c-0.1,0.6-0.2,1.3-0.3,1.9l0,0c-0.5,2.7-1.2,5.4-2.1,8.1
					c-0.8,2-1.6,3.9-2.6,5.7c-0.8,1.5-1.7,3-2.7,4.4c-1,1.3-2,2.7-3.1,3.9h0.1c-1.2,1.3-2.4,2.6-3.8,3.8H9c-1.6,1.5-3.2,2.8-5,4l0,0
					c-2.5,1.7-5.1,3.2-7.9,4.5h0.1l0,0h-0.1c-3.2,1.5-6.5,2.7-9.9,3.7c-3.3,0.9-6.8,1.7-10.4,2.2c-0.7,0.1-1.4,0.2-2.2,0.3
					c-0.5,0.1-0.9,0.1-1.4,0.1s-1.1,0.1-1.6,0.1c-0.1,0-0.2,0-0.3,0c-5.3,0.3-10.6-0.2-15.7-1.4l0.2,0.1c-0.1,0-0.1,0-0.2,0
					l-0.1-0.1c-2.5-0.7-5-1.6-7.3-2.7l0.8,0.4c-0.7-0.3-1.4-0.7-2.1-1l4.2,2.3l47.2,25.7c-0.4-0.3-0.8-0.5-1.3-0.8
					c0.1,0.1,0.2,0.1,0.3,0.2l1,0.5c2.4,1.2,4.8,2.1,7.3,2.7H4.5c4,1.1,8.4,1.5,13,1.5c2.8,0,5.5-0.2,8.2-0.6
					c14.9-2.1,27-7.8,35.4-16.4c0.6-0.6,1.1-1.1,1.7-1.7h-0.1c4.1-4.6,7.1-10,9-15.9c0-0.1,0-0.1,0.1-0.2c0.2-0.6,0.3-1.1,0.5-1.7
					c0-0.1,0.1-0.2,0.1-0.4c0.1-0.5,0.3-1.1,0.4-1.6c0-0.2,0.1-0.3,0.1-0.5c0.1-0.5,0.2-1,0.3-1.6c0-0.2,0.1-0.4,0.1-0.6
					c0.1-0.5,0.2-1,0.2-1.5c0-0.3,0.1-0.5,0.1-0.8c0-0.4,0.1-0.9,0.1-1.3c0-0.4,0.1-0.7,0.1-1.1c0-0.3,0-0.7,0.1-1
					c0-0.7,0.1-1.5,0.1-2.2l0,0C74.3,588.8,66.2,578.6,53.1,571.5z"/>
				<path class="st98" d="M15.8,385.4l50.1,27.3l0,0l0,0c-1-17-8.2-28.9-19.6-35.1l-50.1-27.3l0,0l0,0
					C7.6,356.5,14.8,368.5,15.8,385.4z"/>
				<path class="st98" d="M129.5,492.6l-50.1-27.3c-1.7-0.9-3.4-1.8-5.2-2.7l0,0c-12.9-6.3-27.1-10.8-41.4-14.5
					c-19.1-4.9-38.4-8.3-55.3-12.6h0.1c-0.3-0.1-0.6-0.1-0.8-0.2c-0.9-0.2-1.8-0.5-2.7-0.7c-0.5-0.1-1-0.3-1.6-0.4
					c-0.7-0.2-1.4-0.4-2.1-0.6c-0.7-0.2-1.5-0.4-2.2-0.6c-0.5-0.1-0.9-0.3-1.4-0.4c-0.9-0.3-1.7-0.5-2.6-0.8c-0.3-0.1-0.7-0.2-1-0.3
					c-0.8-0.3-1.6-0.5-2.4-0.8c-0.4-0.1-0.8-0.3-1.2-0.4c-0.4-0.1-0.8-0.3-1.2-0.4c-2.9-1.1-5.7-2.3-8.3-3.5
					c-0.3-0.1-0.6-0.3-0.8-0.4c-0.8-0.4-1.6-0.8-2.4-1.2L-3,452.1c3.5,1.9,7.4,3.6,11.5,5.1c0.4,0.1,0.8,0.3,1.2,0.4
					c0.4,0.1,0.8,0.3,1.2,0.4c0.8,0.3,1.5,0.5,2.3,0.8c0.3,0.1,0.7,0.2,1,0.3c0.9,0.3,1.7,0.5,2.6,0.8c0.5,0.1,0.9,0.3,1.4,0.4
					c0.7,0.2,1.5,0.4,2.2,0.6c0.7,0.2,1.4,0.4,2.1,0.6c0.5,0.1,1,0.3,1.5,0.4c0.9,0.2,1.8,0.5,2.7,0.7c0.2,0.1,0.4,0.1,0.7,0.2l0,0
					C58.7,470.7,98.4,475.7,129.5,492.6l-2.1-1.1C128.1,491.8,128.8,492.2,129.5,492.6z"/>
				<path class="st98" d="M-131.7,625.5l-50.1-27.3c1.5,49,22.9,82.5,56.5,100.7l50.1,27.3C-108.8,707.9-130.2,674.4-131.7,625.5z"
					/>
			</g>
			<g>
				<polygon class="st97" points="-181.8,598.2 -131.7,625.5 -24.9,610.5 -75,583.2 				"/>
				<path class="st97" d="M119.5,299.2l-50.1-27.3c-1.4-0.7-2.7-1.4-4.1-2.1l1.9,1l0,0l-1.9-1c-7.3-3.6-15-6.4-22.9-8.4l0.2,0.1
					c-19.6-5.1-42.1-6.3-67-3.3c-0.2,0-0.4,0-0.6,0.1c-1.5,0.2-3,0.4-4.5,0.6c0,0,0,0-0.1,0l-0.1-0.1c-4.1,0.6-8.2,1.3-12.2,2.1
					c-5.8,1.1-11.6,2.5-17.3,4.1c-11,3-21.5,6.9-31.4,11.4c-0.4,0.2-0.8,0.3-1.2,0.5c-8.8,4.1-17.3,9-25.3,14.5
					c-0.3,0.2-0.7,0.5-1,0.7c-1,0.7-2,1.4-2.9,2.1c-0.2,0.2-0.4,0.3-0.6,0.5c-1.1,0.8-2.3,1.7-3.4,2.6c-0.1,0.1-0.3,0.2-0.4,0.3
					c-1.1,0.9-2.3,1.8-3.4,2.7c-0.2,0.1-0.4,0.3-0.5,0.4c-0.1,0.1-0.2,0.1-0.2,0.2c-1.1,1-2.3,1.9-3.4,2.9h-0.1
					c-4.3,3.9-8.3,7.9-12.1,12.2l0.1,0.1c0,0,0,0-0.1,0.1l0,0c-3.5,3.9-6.8,8.1-9.8,12.4c-3.1,4.4-5.9,9-8.5,13.8
					c-3.1,5.8-5.8,11.8-8,17.9l0,0c-2.5,6.9-4.5,14.1-6,21.7c-0.1,0.4-0.1,0.7-0.2,1.1c-0.1,0.5-0.2,1.1-0.3,1.6
					c-1.5,8.7-2.3,17.5-2.3,26.4c-0.5,51.1,20.8,78,49.8,93.8l50.1,27.3c-29.1-15.8-50.3-42.6-49.8-93.8c0-2.6,0.1-5.1,0.2-7.7
					c0-0.1,0-0.2,0-0.4c0.1-1,0.1-2.1,0.2-3.1c0-0.3,0-0.7,0.1-1c0.1-0.7,0.1-1.3,0.2-2c0.1-0.7,0.1-1.3,0.2-2l0,0
					c1.3-11.8,3.9-23.4,7.9-34.6l0,0c8.1-22.1,21.4-41.2,38.8-56.7c2.4-2.1,4.8-4.2,7.3-6.1l0,0c1.2-1,2.4-1.9,3.6-2.8
					c0.2-0.1,0.3-0.3,0.5-0.4c1.3-1,2.7-1.9,4-2.9c8-5.5,16.5-10.4,25.3-14.5c19.7-9.1,40.6-15.2,62-18l-0.1-0.1l0,0l0.1,0.1
					c0.3,0,0.6-0.1,0.8-0.1c1-0.1,2.1-0.3,3.1-0.4c1.1-0.1,2.3-0.3,3.4-0.4l0,0c36.4-4,67.7,0.9,91.8,14l-3.3-1.8
					C117.4,298,118.5,298.6,119.5,299.2z"/>
			</g>
			<path class="st96" d="M-23.9,419.6c0-27.3,17.4-43,40.7-46.3c0.5-0.1,1.1-0.1,1.6-0.2c27.1-3.1,45.8,11.3,47.5,39.6l108.5-15.3
				c-3.9-84.3-64.3-123.9-154.1-111.3c-86.2,12.1-150.3,68-150.5,152.2c-1.5,157.9,204.7,84.6,204.5,167c0,26-18.8,44.5-48.2,48.6
				c-28.2,4-48.1-9.7-51-43.5l-106.8,15c2.8,89.6,72,127.4,160.6,114.9c96.2-13.5,150.4-83.2,150.5-158
				C179.7,433.4-24,496.9-23.9,419.6z"/>
		</g>
		<g id="Group_3" transform="translate(372.486)">
			<g>
				<polygon class="st98" points="-31,568.1 -81.1,540.8 57.1,717.7 107.2,745 				"/>
				<polygon class="st98" points="106.8,300.4 56.7,273.1 -81,487.5 -30.9,514.8 				"/>
				<polygon class="st98" points="-181.8,751.3 -131.7,778.6 -130.9,333.9 -181,306.6 				"/>
			</g>
			<polygon class="st96" points="64.7,524.2 224.8,283.8 106.8,300.4 -30.9,514.8 -30.5,319.7 -130.9,333.8 -131.7,778.5 
				-31.4,764.4 -31,568 107.1,744.9 229.8,727.7 			"/>
			<g>
				<polygon class="st97" points="174.8,256.5 56.8,273.1 106.9,300.4 224.9,283.8 				"/>
				<polygon class="st97" points="-181,306.5 -130.9,333.8 -30.5,319.7 -80.6,292.4 				"/>
			</g>
		</g>
	</g>
</g>
<g id="Group_9">
	<polygon class="st97" points="639.4,1561.5 552.1,1573.8 734,1672.8 821.3,1660.5 	"/>
	<polygon class="st98" points="369.5,1769.6 369.3,1919.1 551.2,2018.1 551.5,1868.5 	"/>
	<polygon class="st98" points="383.2,1305.5 382.7,1597.6 564.6,1696.6 565.1,1404.5 	"/>
	<polygon class="st97" points="382.7,1597.6 203.6,1622.8 385.6,1721.7 564.6,1696.6 	"/>
	<polygon class="st97" points="553,1065.5 349.5,1094.1 531.4,1193.1 735,1164.5 	"/>
	<polygon class="st97" points="349.5,1094.1 11.8,1661.2 193.7,1760.2 531.4,1193.1 	"/>
	<polygon class="st98" points="11.8,1661.2 11.5,1819.9 193.4,1918.9 193.7,1760.2 	"/>
	<path class="st96" d="M734,1672.8l1-508.3L531.4,1193l-337.7,567.1l-0.3,158.7l358-50.3l-0.3,149.5l182.2-25.6l0.3-149.5l87.3-12.3
		l0.3-170.2L734,1672.8z M564.6,1696.6L564.6,1696.6l-179,25.1l179.6-317.3L564.6,1696.6z"/>
</g>
<g id="Group_23">
	<path class="st98" d="M-104.1,1847.2c0.2-0.7,0.5-1.4,0.7-2.1c0.3-0.8,0.5-1.6,0.8-2.5c0.2-0.7,0.4-1.4,0.6-2.1
		c0.3-0.8,0.5-1.7,0.8-2.5c0.2-0.7,0.4-1.4,0.6-2.1c0.2-0.9,0.5-1.7,0.7-2.6c0.2-0.7,0.4-1.4,0.6-2.2c0.2-0.9,0.5-1.7,0.7-2.6
		c0.2-0.7,0.4-1.5,0.5-2.2c0.2-0.9,0.4-1.8,0.6-2.6c0.2-0.7,0.3-1.5,0.5-2.2c0.2-0.9,0.4-1.8,0.6-2.7c0.2-0.8,0.3-1.5,0.5-2.3
		c0.2-0.9,0.4-1.8,0.6-2.7c0.2-0.8,0.3-1.6,0.5-2.4c0.2-0.9,0.3-1.8,0.5-2.7c0.2-0.8,0.3-1.6,0.4-2.4c0.2-0.9,0.3-1.8,0.5-2.7
		c0.1-0.8,0.3-1.7,0.4-2.5c0.1-0.9,0.3-1.8,0.4-2.7c0.1-0.9,0.3-1.7,0.4-2.6c0.1-0.9,0.3-1.8,0.4-2.6c0.1-0.9,0.3-1.8,0.4-2.7
		c0.1-0.9,0.2-1.7,0.4-2.6c0.1-0.9,0.2-1.9,0.4-2.9c0.1-0.8,0.2-1.7,0.3-2.5c0.1-1,0.2-2,0.3-3c0.1-0.8,0.2-1.6,0.3-2.5
		c0.1-1,0.2-2.1,0.3-3.1c0.1-0.8,0.2-1.6,0.2-2.4c0.1-1.1,0.2-2.2,0.3-3.3c0.1-0.8,0.1-1.5,0.2-2.3c0.1-1.2,0.2-2.3,0.3-3.5
		c0.1-0.7,0.1-1.4,0.2-2.1c0.1-1.2,0.2-2.5,0.3-3.7c0.1-0.7,0.1-1.3,0.2-2c0.1-1.3,0.2-2.6,0.3-3.9c0-0.6,0.1-1.2,0.1-1.8
		c0.1-1.4,0.2-2.8,0.3-4.2c0-0.5,0.1-1.1,0.1-1.6c0.1-1.5,0.2-3,0.2-4.5c0-0.4,0-0.9,0.1-1.3c0.1-1.6,0.2-3.2,0.2-4.8
		c0-0.4,0-0.7,0-1.1c0.1-1.7,0.1-3.5,0.2-5.3c0-0.2,0-0.5,0-0.7c0.1-1.9,0.1-3.8,0.2-5.8c0-0.1,0-0.1,0-0.2
		c0.4-14.1,0.6-28.6,0.7-43.3c0.2-99.2-7.2-187.8-59.8-216.4l-181.9-99c0,0,0,0,0,0l0,0c51.7,28.1,59.7,114.4,59.8,211.7
		c0,1.5,0,3.1,0,4.6c0,24.9-0.5,49-2,71.9c0,0.1,0,0.3,0,0.4c-0.1,1.7-0.2,3.3-0.3,5c0,0.3,0,0.5-0.1,0.8c-0.1,1.5-0.2,3.1-0.4,4.6
		c0,0.4-0.1,0.7-0.1,1.1c-0.1,1.4-0.2,2.9-0.4,4.3c0,0.5-0.1,0.9-0.1,1.4c-0.1,1.4-0.3,2.7-0.4,4c-0.1,0.5-0.1,1.1-0.2,1.6
		c-0.1,1.3-0.3,2.5-0.4,3.8c-0.1,0.6-0.1,1.2-0.2,1.8c-0.1,1.2-0.3,2.4-0.4,3.6c-0.1,0.6-0.1,1.3-0.2,1.9c-0.1,1.1-0.3,2.3-0.4,3.4
		c-0.1,0.7-0.2,1.4-0.3,2c-0.1,1.1-0.3,2.1-0.4,3.2c-0.1,0.7-0.2,1.4-0.3,2.1c-0.1,1-0.3,2.1-0.5,3.1c-0.1,0.7-0.2,1.5-0.3,2.2
		c-0.2,1-0.3,2-0.5,3c-0.1,0.8-0.2,1.5-0.4,2.3c-0.2,1-0.3,1.9-0.5,2.8c-0.1,0.8-0.3,1.5-0.4,2.3c-0.2,0.9-0.4,1.8-0.5,2.8
		c-0.1,0.8-0.3,1.5-0.4,2.3c-0.2,0.9-0.4,1.8-0.6,2.7c-0.2,0.8-0.3,1.5-0.5,2.3c-0.2,0.9-0.4,1.7-0.6,2.6c-0.2,0.8-0.3,1.5-0.5,2.3
		c-0.2,0.9-0.4,1.7-0.6,2.6c-0.2,0.8-0.4,1.5-0.6,2.3c-0.2,0.8-0.4,1.7-0.7,2.5c-0.2,0.7-0.4,1.5-0.6,2.2c-0.2,0.8-0.5,1.7-0.7,2.5
		c-0.2,0.7-0.4,1.5-0.6,2.2c-0.2,0.8-0.5,1.6-0.7,2.5c-0.2,0.7-0.4,1.4-0.7,2.1c-0.3,0.8-0.5,1.6-0.8,2.4c-0.2,0.7-0.4,1.4-0.7,2.1
		c-0.3,0.8-0.6,1.6-0.8,2.4c-0.2,0.7-0.5,1.3-0.7,2c-0.2,0.6-0.4,1.2-0.6,1.7c-0.4,1.1-0.8,2.2-1.3,3.4c-0.3,0.8-0.6,1.6-0.9,2.3
		c-0.6,1.4-1.2,2.9-1.8,4.3c-0.1,0.3-0.3,0.6-0.4,0.9c-0.7,1.6-1.4,3.1-2.2,4.7c-0.2,0.3-0.3,0.7-0.5,1c-0.6,1.3-1.3,2.6-2,3.9
		c-0.3,0.5-0.6,1.1-0.8,1.6c-0.1,0.2-0.2,0.4-0.4,0.7c-0.6,1-1.1,2-1.7,3.1c-0.2,0.3-0.3,0.6-0.5,0.9c-0.5,0.9-1.1,1.8-1.6,2.6
		c-0.3,0.4-0.5,0.8-0.8,1.3c-0.5,0.8-1,1.5-1.5,2.3c-0.2,0.3-0.5,0.7-0.7,1c-6.2,9.1-13.3,17.1-21.5,24c-0.1,0.1-0.2,0.1-0.3,0.2
		c-0.9,0.8-1.9,1.5-2.8,2.3c-0.2,0.1-0.4,0.3-0.5,0.4c-0.9,0.7-1.8,1.4-2.8,2c-0.2,0.1-0.3,0.2-0.5,0.3c-0.8,0.5-1.5,1-2.3,1.6
		c-0.5,0.4-1.1,0.7-1.6,1c-0.7,0.4-1.4,0.9-2.1,1.3c-0.6,0.3-1.1,0.7-1.7,1c-0.7,0.4-1.5,0.8-2.2,1.3c-0.5,0.3-1.1,0.6-1.6,0.9
		c-0.8,0.4-1.6,0.8-2.4,1.2c-0.5,0.3-1.1,0.5-1.6,0.8c-0.7,0.3-1.3,0.6-2,0.9c-6.3,2.8-12.8,5.1-19.4,7c-4.9,1.3-10,2.4-15.4,3.2
		c-0.7,0.1-1.4,0.2-2.1,0.3l0,0c0,0,0,0,0,0l0,0c-0.1,0-0.3,0-0.4,0.1c-12,1.9-24.2,1.9-36.2-0.2c-8.3-1.6-16.3-4.3-24-8.1l181.9,99
		h0c0.9,0.5,1.9,1,2.8,1.5l-1.8-1c0,0,0,0,0,0l1.8,1l0,0c4.6,2.2,9.5,4,14.4,5.3l0,0l0,0c2.3,0.5,4.5,1,6.8,1.4
		c11.8,2.3,24,2.4,36,0.1c0.1,0,0.3,0,0.4-0.1l0,0c0,0,0,0,0,0l0,0c0.7-0.1,1.5-0.2,2.2-0.3c4.8-0.7,9.6-1.7,14.3-2.9
		c7.5-1.9,14.4-4.4,20.9-7.4c0,0,0.1,0,0.1,0l0,0h0c0.2-0.1,0.5-0.2,0.7-0.3c1-0.5,2-1,3-1.5c0.4-0.2,0.8-0.4,1.2-0.6
		c1-0.5,1.9-1,2.9-1.6c0.3-0.2,0.7-0.4,1-0.6c1-0.6,2-1.2,3-1.8c0.3-0.2,0.5-0.3,0.8-0.5c1-0.6,2-1.3,3-2c0.2-0.1,0.4-0.2,0.5-0.3
		l0,0l0,0l0,0l0,0c0,0,0.1,0,0.1-0.1c0.8-0.5,1.5-1.1,2.2-1.6c0.3-0.2,0.6-0.4,0.9-0.6c0.7-0.5,1.4-1,2-1.5c0.3-0.2,0.6-0.5,0.9-0.7
		c0.7-0.5,1.3-1.1,2-1.6c0.1-0.1,0.2-0.2,0.3-0.3c1.1-1,2.3-2,3.4-3c0.5-0.5,1-0.9,1.5-1.4c0.4-0.4,0.9-0.9,1.3-1.3
		c0.4-0.4,0.9-0.9,1.3-1.3c0.4-0.4,0.8-0.8,1.2-1.3c0.5-0.5,1-1,1.4-1.5c0.4-0.4,0.7-0.8,1.1-1.2v0c0.8-0.9,1.6-1.8,2.3-2.7
		c0.3-0.3,0.5-0.7,0.8-1c0.5-0.7,1.1-1.4,1.6-2c0.3-0.4,0.6-0.7,0.8-1.1c0.5-0.7,1-1.4,1.5-2.1c0.3-0.4,0.5-0.7,0.8-1.1
		c0.1-0.2,0.3-0.4,0.4-0.6l0,0c0,0,0,0,0,0l0,0c0.2-0.2,0.3-0.5,0.5-0.7c0.6-0.8,1.1-1.6,1.6-2.4c0.2-0.3,0.4-0.7,0.7-1
		c0.5-0.8,1-1.6,1.5-2.4c0.3-0.5,0.6-0.9,0.9-1.4c0.4-0.7,0.9-1.4,1.3-2.1c0.3-0.5,0.5-0.9,0.8-1.4c0.5-0.8,0.9-1.7,1.4-2.5
		c0,0,0-0.1,0-0.1l0,0c2.7-5.1,5.3-10.5,7.5-16.1c0.2-0.6,0.4-1.1,0.7-1.7c0.5-1.3,1.1-2.7,1.6-4.1c0.1-0.2,0.2-0.4,0.3-0.7l0,0v0
		c0.1-0.2,0.2-0.5,0.3-0.7c0.2-0.7,0.5-1.4,0.7-2C-104.6,1848.8-104.3,1848-104.1,1847.2z"/>
	<path class="st96" d="M-204.8,1267.8c-221.6,31.1-299.7,221.5-300.2,467.6c-0.5,248.4,76.9,416.9,298.6,385.8
		C15.2,2090,93.3,1899.6,93.8,1651.2C94.2,1405.1,16.8,1236.7-204.8,1267.8z M-85.2,1676.4c-0.2,133.4-13.2,245.6-120.8,260.7l0,0
		c-107.6,15.1-120.2-93.5-119.9-226.9c0.2-128.8,13.2-243.3,120.8-258.4S-85,1547.6-85.2,1676.4z"/>
	<path class="st98" d="M-86.3,1272.7c0,0,0.1,0,0.1,0c3.1,0.8,6.1,1.7,9,2.7c0,0,0,0,0.1,0c1.4,0.5,2.8,0.9,4.2,1.4
		c0.2,0.1,0.5,0.2,0.7,0.3c1.2,0.4,2.3,0.8,3.5,1.3c0.6,0.2,1.1,0.4,1.7,0.6c0.9,0.3,1.8,0.7,2.7,1c1,0.4,1.9,0.8,2.9,1.2
		c0.5,0.2,1,0.4,1.5,0.6c1.5,0.6,3,1.3,4.5,2c0.4,0.2,0.8,0.4,1.2,0.6c1,0.5,2,0.9,3,1.4c2.7,1.3,5.3,2.7,7.9,4.1l-0.6-0.3
		c0.2,0.1,0.4,0.2,0.6,0.3l-181.9-99c-2.4-1.3-4.9-2.6-7.4-3.8l0,0c-0.1-0.1-0.3-0.1-0.4-0.2c-2.9-1.4-5.9-2.8-8.9-4
		c-0.3-0.1-0.7-0.3-1-0.4c-1.1-0.5-2.2-0.9-3.4-1.4c-0.8-0.3-1.6-0.6-2.4-0.9c-0.6-0.2-1.2-0.5-1.9-0.7c-1.1-0.4-2.3-0.8-3.4-1.2
		c-0.3-0.1-0.6-0.2-0.8-0.3c-1.4-0.5-2.7-0.9-4.1-1.4c0,0-0.1,0-0.1,0c-3-1-6-1.9-9-2.7c-0.1,0-0.2,0-0.2-0.1c-1-0.3-2-0.6-3.1-0.8
		l0,0c-0.2,0-0.3-0.1-0.5-0.1c-16.5-4.2-34.2-6.7-53.2-7.5c-20.6-1-41.3,0.1-61.7,3.5l0,0c0,0,0,0,0,0l0,0
		c-18.1,2.4-35.9,6.2-53.3,11.3c-16.1,4.7-31.4,10.4-45.7,17c-0.4,0.2-0.7,0.3-1.1,0.5l0,0c0,0,0,0,0,0l0,0c-0.3,0.2-0.7,0.3-1,0.5
		c-0.9,0.4-1.7,0.8-2.6,1.3c-1.3,0.6-2.7,1.3-4,2c-0.8,0.4-1.7,0.8-2.5,1.2c-0.8,0.4-1.6,0.8-2.4,1.3c-0.8,0.4-1.7,0.9-2.5,1.3
		c-0.7,0.4-1.4,0.8-2.1,1.2c-1.5,0.8-3,1.6-4.5,2.5c-0.2,0.1-0.4,0.3-0.6,0.4c-1.4,0.8-2.8,1.6-4.2,2.5c-0.4,0.2-0.8,0.5-1.1,0.7
		c-1.4,0.9-2.8,1.7-4.2,2.6c-0.2,0.1-0.4,0.2-0.5,0.3c-1.6,1-3.2,2-4.8,3.1c-0.3,0.2-0.6,0.4-0.8,0.6c-1.2,0.8-2.4,1.6-3.6,2.4
		c-0.3,0.2-0.6,0.4-0.9,0.6l0,0c-10,6.9-19.5,14.4-28.5,22.5l0,0l0,0l0,0c-0.3,0.3-0.6,0.5-0.8,0.8c-1.6,1.5-3.2,2.9-4.8,4.4
		c-0.4,0.4-0.8,0.8-1.2,1.2c-1.6,1.5-3.1,3-4.7,4.6c-0.5,0.5-0.9,1-1.4,1.4c-1.4,1.5-2.9,2.9-4.3,4.4c-0.6,0.6-1.1,1.2-1.7,1.8
		c-1.4,1.5-2.7,2.9-4,4.4c-0.3,0.3-0.6,0.6-0.9,1l0,0c-7.7,8.7-14.9,17.9-21.7,27.5l0,0c-0.6,0.9-1.3,1.8-1.9,2.7
		c-0.2,0.3-0.5,0.7-0.7,1c-0.5,0.7-0.9,1.4-1.4,2c-0.5,0.7-0.9,1.4-1.4,2.1c-0.4,0.6-0.8,1.3-1.3,1.9c-0.4,0.7-0.9,1.3-1.3,2
		c-0.5,0.7-1,1.5-1.4,2.2c-0.3,0.5-0.6,1-0.9,1.5c-0.6,0.9-1.2,1.9-1.7,2.8c0,0,0,0,0,0c-2.9,4.8-5.7,9.7-8.4,14.6
		c-0.3,0.5-0.5,1-0.8,1.5c-0.2,0.4-0.4,0.7-0.6,1.1l0,0c0,0,0,0,0,0l0,0c-0.1,0.1-0.1,0.2-0.2,0.3c-4.5,8.5-8.8,17.2-12.8,26.2
		c0,0.1-0.1,0.2-0.1,0.3c-0.7,1.7-1.5,3.3-2.2,5c-0.5,1.1-0.9,2.2-1.4,3.3c0,0.1-0.1,0.2-0.1,0.3c-1.1,2.7-2.2,5.5-3.3,8.2
		c0,0.1-0.1,0.2-0.1,0.3c-0.8,2-1.5,3.9-2.3,5.9c-0.4,1.2-0.9,2.4-1.3,3.5c-0.1,0.2-0.2,0.5-0.3,0.7l0,0c0,0,0,0,0,0l0,0
		c-0.1,0.3-0.2,0.6-0.3,0.9c-0.6,1.7-1.2,3.4-1.8,5.1c-0.1,0.3-0.2,0.7-0.4,1c-0.7,2-1.3,3.9-2,5.9c-0.2,0.5-0.4,1.1-0.5,1.6
		c-0.6,1.8-1.2,3.6-1.7,5.3c-0.1,0.3-0.2,0.6-0.3,0.9c-0.6,2-1.3,4-1.9,6.1c-0.2,0.5-0.3,1.1-0.5,1.6c-0.6,1.9-1.1,3.8-1.7,5.7
		c-0.1,0.2-0.1,0.4-0.2,0.5c-0.6,2.1-1.2,4.2-1.7,6.3c-0.1,0.5-0.3,1.1-0.4,1.6c-0.6,2.1-1.1,4.2-1.7,6.3c0,0,0,0.1,0,0.1
		c-0.5,2.1-1.1,4.3-1.6,6.4c-0.1,0.5-0.3,1.1-0.4,1.6c-0.5,2.2-1,4.3-1.5,6.5c0,0.1-0.1,0.2-0.1,0.4c-0.5,2.1-0.9,4.2-1.4,6.3
		c-0.1,0.5-0.2,1-0.3,1.6c-0.5,2.2-0.9,4.4-1.4,6.7c0,0.2-0.1,0.4-0.1,0.6c-0.4,2.1-0.8,4.2-1.2,6.3c-0.1,0.5-0.2,1-0.3,1.5
		c-0.4,2.3-0.9,4.5-1.3,6.8c0,0.2-0.1,0.5-0.1,0.7c-0.4,2.1-0.7,4.2-1.1,6.3c-0.1,0.5-0.2,0.9-0.2,1.4c-0.4,2.3-0.8,4.6-1.1,7
		c0,0.3-0.1,0.6-0.1,0.8c-0.3,2.1-0.7,4.3-1,6.4c-0.1,0.4-0.1,0.9-0.2,1.3c-0.3,2.4-0.7,4.8-1,7.1c0,0.3-0.1,0.6-0.1,0.9
		c-0.3,2.2-0.6,4.4-0.9,6.6c0,0.4-0.1,0.8-0.1,1.1c-0.3,2.4-0.6,4.9-0.9,7.3c0,0.3-0.1,0.7-0.1,1c-0.3,2.2-0.5,4.5-0.7,6.8
		c0,0.3-0.1,0.7-0.1,1c-0.3,2.5-0.5,5-0.7,7.4c0,0.4-0.1,0.7-0.1,1.1c-0.2,2.3-0.4,4.6-0.6,6.9c0,0.3,0,0.5-0.1,0.8
		c-0.2,2.5-0.4,5-0.6,7.6c0,0.4-0.1,0.8-0.1,1.2c-0.2,2.4-0.4,4.7-0.5,7.1c0,0.2,0,0.4,0,0.7c-0.2,2.6-0.3,5.1-0.5,7.7
		c0,0.4,0,0.8-0.1,1.3c-0.1,2.4-0.3,4.9-0.4,7.3c0,0.2,0,0.3,0,0.5c-0.1,2.6-0.2,5.2-0.4,7.8c0,0.5,0,0.9-0.1,1.4
		c-0.1,2.5-0.2,5-0.3,7.5c0,0.1,0,0.2,0,0.3c-0.1,2.6-0.2,5.2-0.2,7.8c0,0.5,0,1.1,0,1.6c-0.1,2.5-0.1,5.1-0.2,7.7
		c0,0.1,0,0.1,0,0.2c0,2.6-0.1,5.2-0.1,7.8c0,0.6,0,1.2,0,1.8c0,2.6,0,5.2,0,7.8c-0.3,174.5,37.8,309.5,137.3,363.7l180.7,98.3
		c0.4,0.2,0.8,0.4,1.2,0.7h0c-72.3-39.3-112.2-121.3-128.5-230.2c-6.1-41-8.9-85.8-8.9-133.5c0-2.7,0-5.3,0-7.9c0-0.5,0-1,0-1.5
		c0.1-5.3,0.1-10.6,0.3-15.9c0-0.4,0-0.9,0-1.3c0.1-5.4,0.3-10.7,0.5-16c0-0.3,0-0.7,0-1c0.2-5.4,0.5-10.7,0.8-16.1
		c0-0.2,0-0.5,0-0.7c0.3-5.4,0.7-10.8,1.1-16.1c0-0.2,0-0.3,0-0.5c0.2-2.7,0.4-5.4,0.7-8.1c0,0,0,0,0,0c0.2-2.7,0.5-5.3,0.7-8
		c0-0.1,0-0.2,0-0.3c0.3-2.7,0.5-5.3,0.8-8c0,0,0-0.1,0-0.1c0.3-2.6,0.6-5.3,0.9-7.9c0,0,0-0.1,0-0.1c0.3-2.6,0.6-5.3,0.9-7.9
		c0-0.1,0-0.2,0-0.3c0.7-5.2,1.4-10.4,2.1-15.5c0-0.1,0-0.3,0.1-0.4c0.7-5.1,1.5-10.1,2.4-15.1c0-0.2,0.1-0.4,0.1-0.6
		c0.8-4.9,1.7-9.8,2.6-14.7c0-0.3,0.1-0.5,0.2-0.8c0.9-4.8,1.9-9.5,2.9-14.2c0.1-0.3,0.1-0.6,0.2-0.9c1-4.6,2.1-9.2,3.2-13.8
		c0.1-0.4,0.2-0.7,0.3-1.1c1.1-4.5,2.2-8.9,3.4-13.3c0.1-0.4,0.2-0.8,0.3-1.2c1.2-4.4,2.4-8.7,3.7-12.9c0.1-0.4,0.3-0.9,0.4-1.3
		c0.6-2.1,1.3-4.2,1.9-6.3c0-0.1,0.1-0.3,0.1-0.4c0.6-2,1.3-3.9,1.9-5.9c0.1-0.4,0.3-0.9,0.4-1.3c0.7-2,1.4-4.1,2.1-6.1
		c0.1-0.2,0.2-0.4,0.2-0.7c0.6-1.9,1.3-3.7,2-5.5c0.1-0.3,0.2-0.6,0.3-1c0.7-1.8,1.4-3.7,2-5.5c0.5-1.3,1-2.5,1.5-3.8
		c0.2-0.5,0.4-1.1,0.6-1.6c0.8-1.9,1.5-3.9,2.3-5.8c0.3-0.8,0.7-1.6,1-2.5c0.4-0.9,0.7-1.7,1.1-2.6c4.7-10.9,9.8-21.6,15.3-32
		c0.2-0.3,0.3-0.6,0.5-0.8c0.4-0.8,0.8-1.5,1.3-2.3c0.4-0.8,0.9-1.6,1.3-2.4c0.2-0.4,0.4-0.7,0.6-1.1c1.7-3.1,3.5-6.1,5.3-9.1
		c0.4-0.7,0.8-1.3,1.2-2c0.3-0.6,0.7-1.1,1-1.7c0.6-0.9,1.1-1.8,1.7-2.7c0.3-0.4,0.5-0.8,0.8-1.2c0.7-1.1,1.3-2.1,2-3.1
		c0.2-0.3,0.4-0.6,0.6-0.9c0.7-1.1,1.5-2.2,2.2-3.3c0.2-0.3,0.4-0.6,0.6-0.9c0.6-0.9,1.2-1.8,1.8-2.7c0.3-0.5,0.6-0.9,1-1.4l0,0h0
		c6.7-9.6,13.9-18.8,21.7-27.5l0,0c0,0,0,0,0,0c1.8-2.1,3.7-4.1,5.6-6.1c0.1-0.1,0.1-0.2,0.2-0.2c1.9-2,3.8-4,5.7-5.9c0,0,0,0,0,0
		c2-2,4-3.9,6-5.9c0,0,0,0,0,0c1.9-1.8,3.8-3.6,5.8-5.4c2.3-2,4.5-4,6.9-6c0.1,0,0.1-0.1,0.2-0.1c0.8-0.6,1.5-1.3,2.3-1.9
		c0.4-0.3,0.7-0.6,1.1-0.9c0.7-0.6,1.4-1.1,2.1-1.7c0.5-0.4,0.9-0.7,1.4-1.1c0.7-0.5,1.3-1.1,2-1.6c0.5-0.4,1-0.8,1.5-1.1
		c0.7-0.5,1.4-1.1,2.1-1.6c0.5-0.4,1-0.7,1.4-1.1c0.7-0.5,1.5-1.1,2.2-1.6c0.4-0.3,0.9-0.6,1.3-1c0.8-0.6,1.6-1.1,2.4-1.7
		c0.4-0.3,0.8-0.5,1.2-0.8c0.5-0.3,0.9-0.6,1.4-1c4.8-3.3,9.8-6.5,14.8-9.6c0.1-0.1,0.2-0.1,0.3-0.2c3.3-2,6.6-3.9,10-5.7
		c0.4-0.2,0.8-0.5,1.3-0.7c1.2-0.6,2.4-1.3,3.6-1.9c0.5-0.3,1-0.5,1.6-0.8c1.6-0.8,3.1-1.6,4.7-2.4c0.4-0.2,0.7-0.4,1.1-0.5
		c1.3-0.7,2.7-1.3,4-1.9c0.5-0.2,0.9-0.4,1.4-0.6c15.1-6.9,30.6-12.6,46.5-17.3c16.6-4.8,34.2-8.5,52.8-11.2l0,0c0,0,0,0,0,0l0,0
		c21.9-3.1,42.4-4.2,61.5-3.5c18,0.9,35.8,3.3,53.4,7.5C-88.7,1272.1-87.5,1272.4-86.3,1272.7z"/>
</g>
<g id="Group_32">
	<polygon class="st97" points="-776.7,1760.5 -864.1,1772.8 -682.1,1871.8 -594.8,1859.5 	"/>
	<polygon class="st98" points="-1046.6,1968.6 -1046.9,2118.1 -865,2217.1 -864.7,2067.6 	"/>
	<polygon class="st98" points="-1032.9,1504.5 -1033.5,1796.6 -851.5,1895.6 -851,1603.5 	"/>
	<polygon class="st97" points="-1033.5,1796.6 -1212.5,1821.8 -1030.6,1920.8 -851.6,1895.6 	"/>
	<polygon class="st97" points="-863.1,1264.5 -1066.6,1293.1 -884.7,1392.1 -681.2,1363.5 	"/>
	<polygon class="st97" points="-1066.7,1293.1 -1404.3,1860.2 -1222.3,1959.2 -884.7,1392.1 	"/>
	<polygon class="st98" points="-1404.3,1860.2 -1404.6,2018.9 -1222.7,2117.9 -1222.4,1959.2 	"/>
	<path class="st96" d="M-682.1,1871.8l0.9-508.3l-203.5,28.6l-337.6,567.1l-0.3,158.7l358-50.3l-0.3,149.5l182.2-25.6l0.3-149.5
		l87.4-12.3l0.3-170.2L-682.1,1871.8z M-851.6,1895.6L-851.6,1895.6l-179,25.1l179.6-317.3L-851.6,1895.6z"/>
</g>
</svg>
