<svg xmlns="http://www.w3.org/2000/svg" xmlns:xlink="http://www.w3.org/1999/xlink" width="784.162" height="558.532" viewBox="0 0 784.162 558.532">
  <defs>
    <clipPath id="clip-path">
      <path id="Path_86" data-name="Path 86" d="M1767.478-36.788l-50.106-27.257c8.156,4.436,18.285,5.762,29.793,4.144,29.356-4.126,48.156-22.616,48.2-48.578.031-16.412-8.127-26.643-21.2-33.755l50.105,27.257c13.073,7.111,21.231,17.342,21.2,33.755-.048,25.964-18.848,44.452-48.2,48.578C1785.765-31.026,1775.633-32.352,1767.478-36.788Z" transform="translate(-1717.372 142.233)" fill="#67568c"/>
    </clipPath>
    <clipPath id="clip-path-2">
      <path id="Path_88" data-name="Path 88" d="M1740.106-230.492l50.106,27.259c11.4,6.2,18.553,18.189,19.578,35.146l-50.106-27.257C1758.659-212.3,1751.5-224.293,1740.106-230.492Z" transform="translate(-1740.106 230.492)" fill="#67568c"/>
    </clipPath>
    <clipPath id="clip-path-3">
      <path id="Path_94" data-name="Path 94" d="M1767.778-169.456l-50.107-27.259c30.96,16.843,89.923,17.6,132.449,40.732l50.105,27.257C1857.7-151.861,1798.736-152.615,1767.778-169.456Z" transform="translate(-1717.67 196.715)" fill="#67568c"/>
    </clipPath>
    <clipPath id="clip-path-4">
      <path id="Path_96" data-name="Path 96" d="M1765.71,10.249,1715.6-17.01c-33.565-18.259-54.946-51.756-56.463-100.734l50.105,27.259C1710.761-41.51,1732.142-8.012,1765.71,10.249Z" transform="translate(-1659.139 117.744)" fill="#67568c"/>
    </clipPath>
    <clipPath id="clip-path-5">
      <path id="Path_101" data-name="Path 101" d="M1827.475-257.781l50.106,27.257c-25.823-14.047-59.651-18.617-99.178-13.062L1728.3-270.844C1767.824-276.4,1801.652-271.828,1827.475-257.781Z" transform="translate(-1728.297 273.143)" fill="#fbdd74"/>
    </clipPath>
    <clipPath id="clip-path-6">
      <path id="Path_110" data-name="Path 110" d="M1759.769,1.231l-50.105-27.257c-29.009-15.781-50.3-42.671-49.826-93.812.156-84.273,64.219-140.134,150.5-152.26l50.105,27.256c-86.285,12.128-150.345,67.986-150.5,152.26C1709.468-41.44,1730.76-14.55,1759.769,1.231Z" transform="translate(-1659.829 272.097)" fill="#fbdd74"/>
    </clipPath>
  </defs>
  <g id="Group_119" data-name="Group 119" transform="translate(0 0)">
    <g id="Group_118" data-name="Group 118">
      <g id="Group_110" data-name="Group 110" transform="translate(0 72.464)" style="isolation: isolate">
        <g id="Group_92" data-name="Group 92" transform="translate(128.013 287.777)" style="isolation: isolate">
          <g id="Group_91" data-name="Group 91" clip-path="url(#clip-path)">
            <g id="Group_90" data-name="Group 90" style="isolation: isolate">
              <path id="Path_76" data-name="Path 76" d="M1767.478-79.408l-50.106-27.257q.656.356,1.328.686l50.106,27.257q-.673-.33-1.328-.686" transform="translate(-1717.372 184.854)" fill="#67568c"/>
              <path id="Path_77" data-name="Path 77" d="M1768.082-79.1l-50.106-27.257a38.185,38.185,0,0,0,7.323,2.684l50.107,27.257a38.055,38.055,0,0,1-7.324-2.684" transform="translate(-1716.648 185.227)" fill="#67568c"/>
              <path id="Path_78" data-name="Path 78" d="M1771.415-75.1l-50.107-27.257a54.577,54.577,0,0,0,21.143.774,70.8,70.8,0,0,0,20.319-5.869l50.106,27.257a70.738,70.738,0,0,1-20.317,5.869,54.534,54.534,0,0,1-21.143-.774" transform="translate(-1712.657 183.913)" fill="#67568c"/>
              <path id="Path_79" data-name="Path 79" d="M1790.274-77.721l-50.106-27.257a55.793,55.793,0,0,0,7.918-4.535l50.105,27.257a55.563,55.563,0,0,1-7.918,4.535" transform="translate(-1690.056 181.441)" fill="#67568c"/>
              <path id="Path_80" data-name="Path 80" d="M1793.875-80.1l-50.105-27.257a49.628,49.628,0,0,0,5.019-3.955L1798.9-84.055a49.876,49.876,0,0,1-5.021,3.955" transform="translate(-1685.739 179.285)" fill="#67568c"/>
              <path id="Path_81" data-name="Path 81" d="M1796.161-81.988l-50.108-27.257a46.422,46.422,0,0,0,3.766-3.792l50.105,27.257a46.4,46.4,0,0,1-3.763,3.792" transform="translate(-1683.004 177.218)" fill="#67568c"/>
              <path id="Path_82" data-name="Path 82" d="M1797.871-83.64,1747.766-110.9a44.827,44.827,0,0,0,3.1-3.926l50.105,27.257a44.369,44.369,0,0,1-3.1,3.926" transform="translate(-1680.951 175.078)" fill="#67568c"/>
              <path id="Path_83" data-name="Path 83" d="M1799.281-85.164l-50.105-27.257a44.011,44.011,0,0,0,2.715-4.408L1802-89.571a43.781,43.781,0,0,1-2.717,4.408" transform="translate(-1679.263 172.675)" fill="#67568c"/>
              <path id="Path_84" data-name="Path 84" d="M1800.518-86.469l-50.108-27.257a43.5,43.5,0,0,0,2.55-5.691l50.108,27.257a43.962,43.962,0,0,1-2.55,5.691" transform="translate(-1677.783 169.573)" fill="#67568c"/>
              <path id="Path_85" data-name="Path 85" d="M1811.7-64.82l-50.108-27.257a47.84,47.84,0,0,0,2.821-16.4c.031-16.412-8.127-26.643-21.2-33.755l50.105,27.257c13.073,7.111,21.231,17.342,21.2,33.755a47.879,47.879,0,0,1-2.818,16.4" transform="translate(-1686.412 142.233)" fill="#67568c"/>
            </g>
          </g>
        </g>
        <g id="Group_95" data-name="Group 95" transform="translate(177.989 93.759)" style="isolation: isolate">
          <g id="Group_94" data-name="Group 94" clip-path="url(#clip-path-2)">
            <g id="Group_93" data-name="Group 93" style="isolation: isolate">
              <path id="Path_87" data-name="Path 87" d="M1809.79-168.087l-50.106-27.257c-1.024-16.958-8.182-28.949-19.578-35.148l50.106,27.259c11.4,6.2,18.553,18.189,19.578,35.146" transform="translate(-1740.106 230.492)" fill="#67568c"/>
            </g>
          </g>
        </g>
        <g id="Group_98" data-name="Group 98" transform="translate(128.668 168.011)" style="isolation: isolate">
          <g id="Group_97" data-name="Group 97" clip-path="url(#clip-path-3)">
            <g id="Group_96" data-name="Group 96" style="isolation: isolate">
              <path id="Path_89" data-name="Path 89" d="M1767.778-169.456l-50.107-27.259q1.559.847,3.207,1.642l50.105,27.257q-1.649-.795-3.205-1.64" transform="translate(-1717.67 196.715)" fill="#67568c"/>
              <path id="Path_90" data-name="Path 90" d="M1769.235-168.711l-50.105-27.257c7.806,3.763,17.116,6.687,27.329,9.292l50.105,27.259c-10.213-2.6-19.521-5.531-27.329-9.294" transform="translate(-1715.922 197.61)" fill="#67568c"/>
              <path id="Path_91" data-name="Path 91" d="M1781.667-164.482l-50.105-27.259c16.883,4.306,36.234,7.74,55.344,12.645l50.108,27.257c-19.112-4.9-38.463-8.336-55.346-12.642" transform="translate(-1701.025 202.675)" fill="#67568c"/>
              <path id="Path_92" data-name="Path 92" d="M1806.845-158.732l-50.108-27.257c14.306,3.671,28.477,8.169,41.376,14.474l50.106,27.259c-12.9-6.307-27.07-10.8-41.374-14.476" transform="translate(-1670.857 209.568)" fill="#67568c"/>
              <path id="Path_93" data-name="Path 93" d="M1825.665-152.146,1775.559-179.4q2.632,1.289,5.192,2.68l50.105,27.257q-2.559-1.392-5.192-2.678" transform="translate(-1648.303 217.457)" fill="#67568c"/>
            </g>
          </g>
        </g>
        <g id="Group_101" data-name="Group 101" transform="translate(0.001 341.611)" style="isolation: isolate">
          <g id="Group_100" data-name="Group 100" clip-path="url(#clip-path-4)">
            <g id="Group_99" data-name="Group 99" style="isolation: isolate">
              <path id="Path_95" data-name="Path 95" d="M1765.71,10.249,1715.6-17.01c-33.568-18.259-54.948-51.756-56.465-100.734l50.105,27.259c1.517,48.976,22.9,82.473,56.465,100.734" transform="translate(-1659.139 117.744)" fill="#67568c"/>
            </g>
          </g>
        </g>
        <g id="Group_102" data-name="Group 102" transform="translate(0 326.597)">
          <path id="Path_97" data-name="Path 97" d="M1709.245-82.3l-50.106-27.257,106.835-15.015,50.106,27.257Z" transform="translate(-1659.139 124.574)" fill="#fbdd74"/>
        </g>
        <g id="Group_105" data-name="Group 105" transform="translate(152.029)" style="isolation: isolate">
          <g id="Group_104" data-name="Group 104" clip-path="url(#clip-path-5)">
            <g id="Group_103" data-name="Group 103" transform="translate(0 -0.001)" style="isolation: isolate">
              <path id="Path_98" data-name="Path 98" d="M1778.4-243.587,1728.3-270.843c26.973-3.792,51.292-2.867,72.225,2.565l50.105,27.259c-20.932-5.434-45.25-6.357-72.225-2.568" transform="translate(-1728.297 273.143)" fill="#fbdd74"/>
              <path id="Path_99" data-name="Path 99" d="M1811.258-243.671l-50.105-27.259a120.834,120.834,0,0,1,22.88,8.391l50.105,27.259a120.628,120.628,0,0,0-22.88-8.391" transform="translate(-1688.927 275.795)" fill="#fbdd74"/>
              <path id="Path_100" data-name="Path 100" d="M1821.666-239.854l-50.105-27.259q2.067,1.016,4.073,2.106l50.106,27.257q-2.005-1.091-4.073-2.1" transform="translate(-1676.455 280.369)" fill="#fbdd74"/>
            </g>
          </g>
        </g>
        <g id="Group_108" data-name="Group 108" transform="translate(1.518 2.299)" style="isolation: isolate">
          <g id="Group_107" data-name="Group 107" clip-path="url(#clip-path-6)">
            <g id="Group_106" data-name="Group 106" style="isolation: isolate">
              <path id="Path_102" data-name="Path 102" d="M1759.769-54.048,1709.664-81.3c-29.009-15.781-50.3-42.671-49.826-93.812a148.2,148.2,0,0,1,8.76-50.849l50.108,27.259a148.12,148.12,0,0,0-8.76,50.846c-.477,51.141,20.815,78.03,49.824,93.812" transform="translate(-1659.829 327.376)" fill="#fbdd74"/>
              <path id="Path_103" data-name="Path 103" d="M1713.926-188.976l-50.108-27.259a136.989,136.989,0,0,1,8.011-17.85l50.105,27.257a136.678,136.678,0,0,0-8.008,17.852" transform="translate(-1655.05 317.646)" fill="#fbdd74"/>
              <path id="Path_104" data-name="Path 104" d="M1717.568-199.283l-50.105-27.257A137.677,137.677,0,0,1,1676-240.382l50.105,27.259a137.44,137.44,0,0,0-8.536,13.84" transform="translate(-1650.683 310.101)" fill="#fbdd74"/>
              <path id="Path_105" data-name="Path 105" d="M1721.45-206.348l-50.105-27.259a141.951,141.951,0,0,1,9.8-12.429l50.105,27.257a141.7,141.7,0,0,0-9.8,12.431" transform="translate(-1646.031 303.325)" fill="#fbdd74"/>
              <path id="Path_106" data-name="Path 106" d="M1725.911-212.155l-50.105-27.257a148.613,148.613,0,0,1,12.06-12.152l50.105,27.259a148.249,148.249,0,0,0-12.06,12.15" transform="translate(-1640.686 296.701)" fill="#fbdd74"/>
              <path id="Path_107" data-name="Path 107" d="M1731.4-217.436l-50.105-27.259a159.44,159.44,0,0,1,16-12.6L1747.4-230.04a159.11,159.11,0,0,0-16,12.6" transform="translate(-1634.112 289.832)" fill="#fbdd74"/>
              <path id="Path_108" data-name="Path 108" d="M1738.675-222.141,1688.569-249.4a177.316,177.316,0,0,1,25.3-14.491l50.105,27.259a177.27,177.27,0,0,0-25.3,14.489" transform="translate(-1625.391 281.932)" fill="#fbdd74"/>
              <path id="Path_109" data-name="Path 109" d="M1750.185-226.795l-50.105-27.259A216.528,216.528,0,0,1,1762.11-272.1l50.105,27.256a216.645,216.645,0,0,0-62.031,18.046" transform="translate(-1611.599 272.097)" fill="#fbdd74"/>
            </g>
          </g>
        </g>
        <g id="Group_109" data-name="Group 109" transform="translate(50.106 27.257)">
          <path id="Path_111" data-name="Path 111" d="M1833.961-258.445c89.806-12.62,150.189,27.024,154.133,111.348L1879.5-131.837c-1.708-28.261-20.448-42.728-47.459-39.578q-.811.092-1.613.2c-23.251,3.269-40.673,19.037-40.723,46.294-.145,77.279,203.605,13.814,203.33,162.691-.141,74.768-54.262,144.452-150.514,157.98-88.644,12.458-157.813-25.342-160.587-114.885l106.834-15.016c2.877,33.8,22.8,47.472,50.974,43.513,29.354-4.126,48.154-22.614,48.2-48.578.154-82.372-205.955-9.057-204.482-166.973C1683.616-190.458,1747.676-246.317,1833.961-258.445Z" transform="translate(-1681.932 260.744)" fill="#ff6e6c"/>
        </g>
      </g>
      <g id="Group_117" data-name="Group 117" transform="translate(372.486)" style="isolation: isolate">
        <g id="Group_111" data-name="Group 111" transform="translate(100.737 284.238)">
          <path id="Path_112" data-name="Path 112" d="M2062.663,27.374,2012.557.116,1874.408-176.807l50.106,27.257Z" transform="translate(-1874.408 176.807)" fill="#67568c"/>
        </g>
        <g id="Group_112" data-name="Group 112" transform="translate(238.55)">
          <path id="Path_113" data-name="Path 113" d="M1987.206-262.268,1937.1-289.526l117.981-16.581,50.106,27.257Z" transform="translate(-1937.1 306.107)" fill="#fbdd74"/>
        </g>
        <g id="Group_113" data-name="Group 113" transform="translate(100.836 16.581)">
          <path id="Path_114" data-name="Path 114" d="M1924.56-56.867l-50.106-27.257,137.714-214.439,50.106,27.257Z" transform="translate(-1874.453 298.564)" fill="#67568c"/>
        </g>
        <g id="Group_114" data-name="Group 114" transform="translate(50.106 27.257)">
          <path id="Path_115" data-name="Path 115" d="M2207.908-293.708,2047.841-53.325l165.1,203.537-122.684,17.242L1952.113-9.47l-.365,196.39-100.372,14.106.826-444.743,100.373-14.106-.362,195.136,137.714-214.439Z" transform="translate(-1851.376 293.708)" fill="#ff6e6c"/>
        </g>
        <g id="Group_115" data-name="Group 115" transform="translate(0 49.991)">
          <path id="Path_116" data-name="Path 116" d="M1878.689,188.635l-50.106-27.257.826-444.743,50.106,27.257Z" transform="translate(-1828.583 283.366)" fill="#67568c"/>
        </g>
        <g id="Group_116" data-name="Group 116" transform="translate(0.826 35.885)">
          <path id="Path_117" data-name="Path 117" d="M1879.065-248.419l-50.106-27.257,100.373-14.106,50.106,27.257Z" transform="translate(-1828.959 289.783)" fill="#fbdd74"/>
        </g>
      </g>
    </g>
  </g>
</svg>
