<svg viewBox="0 0 784.09 558.65">
  <g id="Layer_2" data-name="Layer 2">
    <g id="Layer_1-2" data-name="Layer 1">
      <g id="Group_1" data-name="Group 1">
        <g id="Group_2" data-name="Group 2">
          <g id="Group_4" data-name="Group 4">
            <g>
              <path d="M234.91,387.54l-50.1-27.3c13.1,7.2,21.2,17.4,21.2,33.8,0,.75,0,1.49,0,2.23,0,.38,0,.75-.07,1.13s0,.67-.07,1c0,.52-.1,1-.16,1.56,0,.16,0,.32,0,.47-.08.64-.17,1.27-.28,1.9v0a46.77,46.77,0,0,1-2.11,8.07,49.42,49.42,0,0,1-2.6,5.7,39.92,39.92,0,0,1-2.7,4.4c-1,1.3-2,2.7-3.1,3.9l.06,0a45.26,45.26,0,0,1-3.77,3.82l-.09-.05a38.11,38.11,0,0,1-5,4h0a55.64,55.64,0,0,1-7.9,4.5l.06,0h0l-.06,0a68.5,68.5,0,0,1-9.92,3.74,76.5,76.5,0,0,1-10.38,2.16c-.71.11-1.43.2-2.15.28-.45.06-.9.1-1.35.14s-1.06.1-1.58.13l-.29,0a56.25,56.25,0,0,1-15.73-1.37l.2.11-.18-.05-.12-.06a45.51,45.51,0,0,1-7.3-2.7l.76.42c-.69-.32-1.38-.66-2.06-1l4.19,2.28,47.21,25.72a14.8,14.8,0,0,0-1.3-.8l.3.16,1,.54a33.91,33.91,0,0,0,7.3,2.7l-.06,0a48.41,48.41,0,0,0,13,1.48,53.9,53.9,0,0,0,8.22-.65c14.88-2.07,27-7.84,35.42-16.39.57-.56,1.14-1.12,1.68-1.71l-.06,0a43.66,43.66,0,0,0,9-15.93.75.75,0,0,0,.05-.16c.18-.57.34-1.14.5-1.72,0-.12.06-.24.1-.37.13-.54.26-1.08.38-1.63,0-.16.07-.32.11-.48l.3-1.57c0-.2.06-.4.1-.6.07-.49.15-1,.21-1.48,0-.27.06-.53.09-.79.05-.44.1-.89.14-1.33s.05-.75.08-1.13.05-.69.06-1c0-.75.05-1.49.05-2.24h0C256.11,404.84,248,394.64,234.91,387.54Z" style="fill: #67568c"/>
              <path d="M197.59,201.42l50.1,27.3h0c-1-17-8.2-28.9-19.6-35.1L178,166.32h0C189.39,172.52,196.59,184.52,197.59,201.42Z" style="fill: #67568c"/>
              <path d="M311.27,308.58l-50.1-27.3c-1.7-.9-3.4-1.8-5.2-2.7h0c-12.9-6.3-27.1-10.8-41.4-14.5-19.1-4.9-38.4-8.3-55.3-12.6l.08,0-.85-.22c-.92-.24-1.83-.47-2.73-.72l-1.56-.42-2.07-.58-2.22-.65-1.39-.41-2.59-.82-1-.32-2.36-.81-1.2-.42-1.19-.45c-2.92-1.09-5.71-2.25-8.32-3.52l-.83-.39c-.8-.4-1.6-.8-2.37-1.21l50.1,27.3A90.94,90.94,0,0,0,190.3,273l1.18.45,1.21.42,2.34.81,1,.32,2.57.82,1.41.41,2.2.65,2.09.58,1.55.42c.9.25,1.81.48,2.73.72l.67.18h0c31.25,8,70.93,13,101.91,29.81l-2-1.11Z" style="fill: #67568c"/>
              <path d="M50.1,441.48,0,414.17c1.5,49,22.9,82.5,56.5,100.7l50.1,27.3C73,523.87,51.6,490.37,50.1,441.48Z" style="fill: #67568c"/>
            </g>
            <g>
              <polygon points="0 414.16 50.1 441.46 156.9 426.46 106.8 399.16 0 414.16" style="fill: #fbdd74"/>
              <path d="M301.33,115.16l-50.1-27.3c-1.4-.7-2.7-1.4-4.1-2.1l1.91,1h0l-1.9-1a116.38,116.38,0,0,0-22.9-8.4l.19.11c-19.57-5.12-42.13-6.28-67-3.3l-.61.07c-1.49.18-3,.38-4.49.59h-.05l-.13-.07q-6.21.88-12.25,2.06-8.73,1.67-17.31,4.07A204.42,204.42,0,0,0,91.19,92.34L90,92.86a176.09,176.09,0,0,0-25.3,14.5l-1,.75c-1,.69-2,1.4-2.94,2.11l-.65.48c-1.14.85-2.26,1.71-3.37,2.58l-.39.32Q54.63,115,53,116.34l-.53.43-.23.21q-1.73,1.44-3.41,2.92l-.07,0a154.7,154.7,0,0,0-12.1,12.2l.1.06-.06.07,0,0a130.16,130.16,0,0,0-9.8,12.4,137.9,137.9,0,0,0-8.5,13.8,135.9,135.9,0,0,0-8,17.9l0,0a140.57,140.57,0,0,0-6,21.65c-.07.36-.14.73-.2,1.09-.11.55-.21,1.09-.31,1.63a145.93,145.93,0,0,0-2.26,26.4c-.5,51.1,20.8,78,49.8,93.8l50.1,27.3c-29.1-15.8-50.3-42.6-49.8-93.8q0-3.87.2-7.67c0-.12,0-.24,0-.37.05-1,.12-2,.19-3.08,0-.34,0-.69.07-1l.18-2c.06-.67.12-1.34.19-2v0a147.46,147.46,0,0,1,8-34.61l0,0a140,140,0,0,1,38.81-56.68c2.4-2.11,4.83-4.17,7.33-6.15l0,0q1.8-1.42,3.65-2.79l.5-.38q2-1.47,4-2.86a176.09,176.09,0,0,1,25.3-14.5,214.17,214.17,0,0,1,62-18l-.12-.06h0l.13.06.84-.11,3.08-.4,3.41-.4h0c36.36-4,67.66.89,91.85,14l-3.31-1.8C299.15,114,300.28,114.6,301.33,115.16Z" style="fill: #fbdd74"/>
            </g>
            <path class="pink-letter-anim" d="M157.91,235.62c0-27.3,17.4-43,40.7-46.3.5-.1,1.1-.1,1.6-.2,27.1-3.1,45.8,11.3,47.5,39.6l108.5-15.3c-3.9-84.3-64.3-123.9-154.1-111.3-86.2,12.1-150.3,68-150.5,152.2-1.5,157.9,204.7,84.6,204.5,167,0,26-18.8,44.5-48.2,48.6-28.2,4-48.1-9.7-51-43.5l-106.8,15c2.8,89.6,72,127.4,160.6,114.9,96.2-13.5,150.4-83.2,150.5-158C361.51,249.42,157.81,312.92,157.91,235.62Z" style="fill: #ff6e6c"/>
          </g>
          <g id="Group_3" data-name="Group 3">
            <g>
              <polygon points="523.32 311.64 473.22 284.34 611.42 461.24 661.52 488.54 523.32 311.64" style="fill: #67568c"/>
              <polygon points="661.12 43.98 611.02 16.68 473.32 231.08 523.42 258.38 661.12 43.98" style="fill: #67568c"/>
              <polygon points="372.49 494.79 422.59 522.09 423.39 77.39 373.29 50.09 372.49 494.79" style="fill: #67568c"/>
            </g>
            <polygon class="pink-letter-anim" points="618.99 267.76 779.09 27.36 661.09 43.96 523.39 258.36 523.79 63.26 423.39 77.36 422.59 522.06 522.89 507.96 523.29 311.56 661.39 488.46 784.09 471.26 618.99 267.76" style="fill: #ff6e6c"/>
            <g>
              <polygon points="729.04 0 611.04 16.6 661.14 43.9 779.14 27.3 729.04 0" style="fill: #fbdd74"/>
              <polygon points="373.31 50.09 423.41 77.39 523.81 63.28 473.71 35.98 373.31 50.09" style="fill: #fbdd74"/>
            </g>
          </g>
        </g>
      </g>
    </g>
  </g>
</svg>
