<?xml version="1.0" encoding="utf-8"?>
<!-- Generator: Adobe Illustrator 23.0.4, SVG Export Plug-In . SVG Version: 6.00 Build 0)  -->
<svg version="1.1" id="Layer_1" focusable="false" xmlns="http://www.w3.org/2000/svg" xmlns:xlink="http://www.w3.org/1999/xlink"
	 x="0px" y="0px" viewBox="0 0 512 512" style="enable-background:new 0 0 512 512;" xml:space="preserve">
<style type="text/css">
	.st0{fill:#67568C;}
	.st1{fill:#FF6E6C;}
</style>
<path class="st0" d="M109.3,244l134.6-134.6l-44.1-44.1L138.1,127c-3.1,3.1-8.1,3.1-11.2,0c0,0,0,0,0,0l-11.2-11.2
	c-3.1-3.1-3.1-8.1,0-11.2l61.7-61.7L143.7,9.2c-12.4-12.4-32.5-12.4-44.9,0L9.1,98.9c-12.4,12.4-12.4,32.5,0,44.9L109.3,244
	L109.3,244z M502.5,368.1l-33.6-33.6l-61.7,61.7c-3.1,3.1-8.1,3.1-11.2,0l-11.2-11.2c-3.1-3.1-3.1-8.1,0-11.2l61.7-61.7l-44.1-44.1
	L267.7,402.4L368,502.6c12.4,12.4,32.5,12.4,44.9,0l89.7-89.7C514.9,400.5,514.9,380.5,502.5,368.1L502.5,368.1z"/>
<g>
	<path class="st1" d="M497.9,127.2c18.8-18.8,18.8-49.2,0-67.9l-45.2-45.2c-18.8-18.8-49.2-18.8-68,0l-46,46l113.2,113.2
		L497.9,127.2L497.9,127.2z"/>
	<path class="st1" d="M316.1,82.7l-297,297L0.3,487.1c-2.5,14.5,10.1,27.1,24.6,24.6l107.5-18.8l296.9-296.9L316.1,82.7z"/>
</g>
</svg>
